<?xml version="1.0" encoding="utf-8"?>
<!-- Generator: Adobe Illustrator 27.5.0, SVG Export Plug-In . SVG Version: 6.00 Build 0)  -->
<svg version="1.1" xmlns="http://www.w3.org/2000/svg" xmlns:xlink="http://www.w3.org/1999/xlink" x="0px" y="0px"
	 viewBox="0 0 750 500" style="enable-background:new 0 0 750 500;" xml:space="preserve">
<g id="OBJECTS">
	<g>
		<g>
			<ellipse style="opacity:0.3;fill:#BAAD93;" cx="277.545" cy="461.352" rx="72.465" ry="5.989"/>
			<g>
				<g>
					<path style="fill:#DA8F5D;" d="M248.345,199.968c0.631,1.098,2.305,12.939,2.305,12.939l47.881,1.431l3.324-19.954
						L248.345,199.968z"/>
					<path style="fill:#CB7239;" d="M248.938,202.282c-0.232-1.177-0.442-2.053-0.592-2.314l53.509-5.583l-2.335,13.921
						C282.814,205.333,265.678,205.041,248.938,202.282z"/>
				</g>
				<g>
					<g>
						<g>
							<g>
								<path style="fill:#E8A171;" d="M312.11,426.666l4.864,28.4c0,0,5.818-6.176,7.341-6.234
									c2.769-0.106,6.508-5.171,6.508-5.171l0.087-16.124L312.11,426.666z"/>
								<polygon style="fill:#DA8F5D;" points="321.755,421.65 324.798,452.243 331.654,452.684 331.056,422.105 								"/>
								<path style="fill:#7D4030;" d="M333.295,450.071l3.646,8.048c0.864,1.456,0.315,3.15-1.343,4.115
									c-2.687,1.564-14.836,2.624-17.525,1.316c-1.804-0.878-3.469-0.679-3.2-2.261l0.813-7.709
									c0.031-0.182,3.196-5.913,9.128-5.978C329.497,447.552,333.203,449.917,333.295,450.071z"/>
								<g>
									<path style="fill:none;stroke:#30374F;stroke-width:0.5355;stroke-miterlimit:10;" d="M329.295,450.567
										c0,0-5.543-2.747-9.572,1.07"/>
									<path style="fill:none;stroke:#30374F;stroke-width:0.5355;stroke-miterlimit:10;" d="M329.572,453.715
										c0,0-5.543-2.747-9.572,1.07"/>
								</g>
							</g>
							<path style="fill:#ECB333;" d="M230.689,253.688c6.6-28.289,19.105-43.77,19.105-43.77l49.142,1.868
								c0,0,9.802,24.076,13.454,41.014c6.136,28.457,20.279,183.669,20.279,183.669c-15.294,1.546-20.784,2.067-20.784,2.067
								s-26.598-99.59-39.204-160.824c-0.823-4-3.556-3.773-3.804,0.287c-1.247,20.429-17.869,157.875-17.869,157.875l-18.389-1.682
								c-0.163,0.818-1.85-39.749-5.891-92.672C224.023,306.112,224.853,280.219,230.689,253.688z"/>
							<path style="opacity:0.48;fill:#D39260;" d="M249.793,209.917l62.596,42.881c0,0-9.188-31.111-13.454-41.014L249.793,209.917
								z"/>
							<g>
								<g>
									<path style="fill:#E8A171;" d="M250.756,433.351l-0.848,22.974c0,0-4.063,2.441-9.332,0.803
										c-4.856-1.509-7.261-7.126-7.261-7.126l-1.093-17.112L250.756,433.351z"/>
									<polygon style="fill:#DA8F5D;" points="241.781,433.867 241.768,460.223 249.799,456.114 250.364,435.107 									"/>
									<path style="fill:#7D4030;" d="M233.238,449.337l-9.684,4.75c-2.45,1.202-3.995,3.638-3.805,6.235
										c0.049,0.667,0.199,1.13,0.491,1.135c0,0,29.585,0.108,29.632-0.315c0.289-2.624,0.618-3.78,0.16-6.176
										c-0.066-0.343-5.795,1.675-8.112,0.866C240.368,455.29,233.238,449.337,233.238,449.337z"/>
									<g>
										
											<line style="fill:none;stroke:#30374F;stroke-width:0.5197;stroke-miterlimit:10;" x1="231.204" y1="450.296" x2="236.375" y2="455.258"/>
										
											<line style="fill:none;stroke:#30374F;stroke-width:0.5197;stroke-miterlimit:10;" x1="228.639" y1="451.527" x2="233.811" y2="456.49"/>
									</g>
								</g>
								<path style="fill:none;stroke:#FFFFFF;stroke-width:0.5097;stroke-miterlimit:10;" d="M236.193,427.191
									c0,0-21.876-149.609,13.215-208.853"/>
								<path style="opacity:0.48;fill:#D39260;" d="M254.044,406.248c-2.219,17.18-3.33,28.578-3.33,28.578l-19.141-0.596
									c-0.061,0.306,1.375-6.008,0.112-15.962C242.236,418.34,245.567,411.931,254.044,406.248z"/>
								<polygon style="fill:#ECB333;" points="228.71,438.148 253.312,438.078 254.285,430.277 228.397,426.499 								"/>
							</g>
							
								<line style="fill:none;stroke:#FFFFFF;stroke-width:0.5097;stroke-miterlimit:10;" x1="302.859" y1="219.788" x2="245.052" y2="217.695"/>
							<g>
								<path style="fill:none;stroke:#FFFFFF;stroke-width:0.5097;stroke-miterlimit:10;" d="M322.646,428.905
									c0,0,0.226-153.786-25.801-209.518"/>
								<path style="opacity:0.48;fill:#D39260;" d="M314.858,422.792c5.686-3.354,11.005-7.469,15.167-12.493
									c1.144,16.253,2.404,26.266,2.404,26.266c-15.294,1.546-16.752,1.052-16.752,1.052s-3.698-4.649-5.509-11.654
									C312.315,424.943,312.831,423.988,314.858,422.792z"/>
							</g>
							<g>
								<g>
									<path style="fill:#DA8F5D;" d="M202.446,119.427c1.339,0.226,3.409,6.988,3.8,6.71c0.391-0.278-2.292-7.488-1.232-7.653
										c1.06-0.165,3.131,6.596,3.8,6.709c0.669,0.113-2.349-7.153-0.954-7.262c1.395-0.109,4.079,7.1,4.804,6.879
										c0.726-0.222-3.074-6.931-1.623-7.375c1.452-0.444,7.027,10.546,7.305,10.937c0.278,0.391,4.131-5.88,5.753-6.382
										c1.557-0.483,1.057,1.899,1.057,1.899c-2.22,6.006-3.528,5.386-2.82,16.201c1.351,7.345,6.763,27.574,9.396,37.081
										c0,0,17.169-39.422,31.18-31.967c23.414,5.581-20.235,53.821-29.716,61.788c-9.179,7.713-17.483,3.366-19.704-6.636
										c-4.609-20.751-4.873-45.756-4.821-54.041l-0.218-2.259c0,0-2.781-8.201-4.452-16.397
										C203.574,125.569,201.442,119.257,202.446,119.427z"/>
									<path style="fill:#733432;" d="M266.848,146.203c0,0-10.47-8.69-17.289-1.403c-6.82,7.287-12.635,20.624-12.635,20.624
										l8.899,14.317L266.848,146.203z"/>
								</g>
								<g>
									<path style="fill:#733432;" d="M251.497,131.557c-2.782-9.249,12.311-15.626,13.011-26.123
										c0.384-5.77,6.339-11.016,13.197-11.016c23.228,0,23.649,8.94,22.055,20.957c-0.335,2.528,9.451,16.603,0.12,18.88
										C286.751,137.457,264.256,130.785,251.497,131.557z"/>
									<path style="fill:#733432;" d="M287.652,122.354c0,0,6.547-3.317,4.835-9.179c-4.298-14.714-11.585-5.699-11.585-5.699
										L287.652,122.354z"/>
									<path style="fill:none;stroke:#FFFFFF;stroke-width:1.038;stroke-miterlimit:10;" d="M263.011,123.899
										c0.21-3.149,2.932-5.531,6.081-5.321c3.149,0.21,5.531,2.932,5.321,6.081c-0.21,3.149-2.932,5.531-6.081,5.321
										C265.183,129.77,262.801,127.048,263.011,123.899z"/>
									<path style="fill:#E8A171;" d="M282.911,111.657c0.107,0.258,2.907,3.799,3.143,3.672c0.984-0.533,3.465-1.508,5.035,1.097
										c1.587,2.634-1.832,5.285-3.288,6.173c-0.42,0.256-0.727,0.679-0.866,1.179c-0.426,1.535,0.056,4.001-0.575,9.058
										c-0.55,4.405,1.662,15.859,1.662,15.859s-36.312,27.852-21.1-3.211l4.435-16.593c0,0-10.368,0.669-8.728-12.921
										c0.764-11.469,6.808-13.025,8.677-13.618C272.882,101.85,277.595,98.863,282.911,111.657z"/>
									<path style="fill:#D4653A;" d="M270.78,128.807l4.26-0.125C275.04,128.682,272.297,133.48,270.78,128.807z"/>
									<path style="fill:#733432;" d="M267.869,102.384c0,0,5.127,10.195,14.691,6.61
										C282.56,108.994,278.461,86.023,267.869,102.384z"/>
									<path style="fill:none;stroke:#FFFFFF;stroke-width:1.038;stroke-miterlimit:10;" d="M283.381,125.132
										c0.21-3.149,2.932-5.531,6.081-5.321c3.149,0.21,5.531,2.932,5.321,6.081c-0.21,3.149-2.932,5.531-6.081,5.321
										C285.554,131.004,283.171,128.281,283.381,125.132z"/>
									<g>
										<g>
											<path style="fill:#122030;" d="M275.303,114.24c0.129,0.801-0.416,1.555-1.217,1.683
												c-0.801,0.129-1.554-0.416-1.683-1.217c-0.129-0.801,0.416-1.555,1.217-1.683
												C274.421,112.894,275.175,113.439,275.303,114.24z"/>
										</g>
										<g>
											<path style="fill:#122030;" d="M267.091,113.313c0.129,0.801-0.416,1.554-1.217,1.683
												c-0.801,0.129-1.554-0.416-1.683-1.217c-0.129-0.801,0.416-1.554,1.217-1.683
												C266.209,111.967,266.962,112.512,267.091,113.313z"/>
										</g>
										<g>
											<path style="fill:#122030;" d="M268.2,120.012c0.161,0.017,0.322-0.067,0.397-0.221c0.094-0.196,0.012-0.432-0.184-0.526
												c-0.674-0.325-0.993-0.62-1.066-0.988c-0.115-0.576,0.357-1.476,1.366-2.603c0.145-0.162,0.13-0.411-0.031-0.556
												c-0.163-0.145-0.411-0.133-0.557,0.031c-1.229,1.375-1.723,2.418-1.551,3.283c0.16,0.803,0.846,1.232,1.497,1.545
												C268.113,119.994,268.156,120.007,268.2,120.012z"/>
										</g>
										<g>
											<path style="fill:#122030;" d="M277.128,111.136c0.132-0.001,0.264-0.06,0.354-0.171
												c0.162-0.198,0.132-0.489-0.067-0.651c-1.383-1.126-3.349-1.438-5.015-0.794c-0.238,0.092-0.356,0.36-0.264,0.598
												c0.091,0.239,0.359,0.357,0.598,0.265c1.337-0.518,2.984-0.257,4.097,0.648
												C276.918,111.103,277.023,111.137,277.128,111.136z"/>
										</g>
										<g>
											<path style="fill:#122030;" d="M268.046,109.836c0.086-0.013,0.167-0.053,0.23-0.121c0.148-0.159,0.139-0.408-0.02-0.556
												c-1.157-1.076-3.102-1.063-4.244,0.03c-0.157,0.15-0.163,0.399-0.013,0.556c0.152,0.158,0.4,0.162,0.557,0.013
												c0.837-0.8,2.315-0.812,3.164-0.023C267.811,109.82,267.933,109.853,268.046,109.836z"/>
										</g>
										<path style="opacity:0.53;fill:#A95533;" d="M273.959,120.533c0.364,1.109,1.559,1.714,2.668,1.349
											c1.109-0.364,1.714-1.559,1.349-2.668c-0.364-1.109-1.559-1.714-2.668-1.349
											C274.199,118.229,273.595,119.423,273.959,120.533z"/>
										<path style="opacity:0.53;fill:#A95533;" d="M262.638,115.834c-0.18,1.55-0.217,2.904-0.141,4.196
											c0.1,0.003,0.113-0.016,0.216-0.033c1.147-0.215,1.895-1.329,1.68-2.475C264.21,116.601,263.521,115.948,262.638,115.834z
											"/>
										<path style="fill:#FFFFFF;" d="M271.939,121.154l-5.16,0.942c0,0,0.613,2.549,2.493,2.723
											C271.151,124.993,272.568,123.33,271.939,121.154z"/>
										<path style="fill:#122030;" d="M290.317,116.833c-0.758-0.464-1.738-0.533-2.553-0.182
											c-0.816,0.351-1.439,1.11-1.622,1.979c-0.044,0.205,0.088,0.407,0.292,0.45c0.028,0.006,0.054,0.009,0.081,0.009
											c0.175-0.001,0.331-0.123,0.369-0.301c0.084-0.397,0.303-0.752,0.595-1.032l0.531,0.912
											c0.071,0.122,0.199,0.189,0.33,0.189c0.065,0,0.129-0.017,0.189-0.052c0.181-0.105,0.242-0.337,0.137-0.519l-0.554-0.951
											c0.583-0.234,1.272-0.184,1.81,0.146c0.176,0.109,0.412,0.054,0.521-0.126
											C290.552,117.176,290.496,116.942,290.317,116.833z"/>
									</g>
								</g>
								<g>
									<path style="fill:#D85740;" d="M247.924,164.046c9.146-13.993,14.65-16.487,17.937-18.335l0.286,0.445
										c3.124,4.868,8.897,5.092,14.601,4.133c4.032-0.678,7.114-3.259,7.15-2.582c5.366,0.702,14.928,7.303,14.928,7.303
										c4.299,35.972,8.98,40.931,7.507,49.441c-38.001-0.069-67.08-2.007-67.08-2.007
										C242.486,185.912,237.508,179.981,247.924,164.046z"/>
								</g>
								<g>
									<path style="fill:#733432;" d="M274.389,195.999c5.419-5.318,10.332-11.26,13.957-17.955
										c4.559-8.419,5.528-17.213,8.194-26.243c0.057-0.192,0.101-0.38,0.138-0.566c3.385,1.871,6.149,3.775,6.149,3.775
										c4.642,37.872,8.98,40.931,7.507,49.441c-17.339-0.032-32.809-0.452-44.518-0.9
										C268.794,201.175,271.666,198.671,274.389,195.999z"/>
								</g>
							</g>
							<g>
								<g>
									<path style="fill:#E8A171;" d="M218.364,163.841c0,0,38.057,56.364,48.651,51.682c0,0,51.204-46.943,33.177-66.929
										c-10.706-11.87-18.706,12.444-35.482,31.116c-0.513,0.571-35.376-23.39-35.376-23.39s-11.165-23.155-12.456-22.219
										c-1.871,1.356,2.219,11.503,2.219,11.503s-0.59,0.947-1.845,1.228c-1.255,0.281-2.05,0.92-2.743,2.38
										c-0.693,1.459-2.41,2.047-2.846,2.892C211.226,152.948,215.591,160.841,218.364,163.841z"/>
									<path style="fill:#D85740;" d="M294.938,144.573c8.164,0.65,16.745,12.887,12.498,27.662
										c-3.36,11.689-5.758,15.993-5.758,15.993s-34.149-15.854-32.484-19.48C273.585,159.187,284.264,143.723,294.938,144.573z"
										/>
								</g>
							</g>
							<polygon style="fill:#ECB333;" points="311.187,442.622 334.645,438.587 334.756,426.432 309.357,432.946 							"/>
						</g>
					</g>
				</g>
			</g>
		</g>
		<g>
			<g>
				<path style="opacity:0.3;fill:#BAAD93;" d="M63.131,460.223c0-2.021,28.473-3.659,63.597-3.659
					c35.124,0,63.597,1.638,63.597,3.659c0,2.021-28.473,3.659-63.597,3.659C91.605,463.882,63.131,462.244,63.131,460.223z"/>
				<g>
					<g>
						<path style="fill:#0E162E;" d="M111.635,161.699"/>
						<path style="fill:#422F3A;" d="M141.426,133.629c3.945-10.074-1.697-13.106-3.529-14.941
							c-4.23-4.785-12.084-8.028-17.221-7.099c0,0-7.072-1.639-12.225,4.569c-0.819,0.986-14.634,12.702,7.973,31.345"/>
						<g>
							<g>
								<path style="fill:#422F3A;" d="M111.098,116.133c2.244-0.797,2.34-3.084,1.384-4.82c-0.988-1.794-1.975-4.826-4.652-3.59
									c-0.825,0.381-1.448,1.121-1.826,1.947c-0.892,1.95-1.953,0.458-3.37-0.106c-1.771-0.704-3.676,0.671-4.871,2.155
									c-0.622,0.773-1.19,1.635-1.352,2.614c-0.321,1.935,0.978,3.727,2.203,5.259c1.035,1.294,2.215,2.678,3.848,2.963
									c1.263,0.221,2.529-0.271,3.716-0.753c1.053-0.428,2.123-0.866,3.008-1.58c0.884-0.715,1.571-1.76,1.581-2.897"/>
							</g>
							<g>
								<path style="fill:#422F3A;" d="M124.911,112.18c0.816-1.92,0.771-4.408,2.468-5.622c1.102-0.788,2.576-0.732,3.927-0.645
									c1.607,0.105,3.374,0.28,4.488,1.444c0.627,0.655,0.951,1.537,1.227,2.401c0.365,1.142,0.673,2.388,0.28,3.521
									c-0.502,1.449-1.981,2.283-3.343,2.986c-0.557,0.288-1.172,0.584-1.785,0.452c-0.917-0.198-1.378-1.237-2.184-1.718"/>
							</g>
						</g>
						<path style="fill:#D57E5A;" d="M141.827,135.181c0.01,0.56,0.01,1.09,0,1.61c-0.02,1.56-0.15,2.95-0.34,4.19
							c-1.51,9.43-7.36,9.9-9.13,9.76c-0.15,0-1.39,17.31-1.39,17.31c2.09,28.69-22.81-3.37-22.81-3.37s1.49-0.04,7.06-6.87
							c0.9-1.11,0.91-13.88,0.02-15.59c-0.86,0.23-2.6-0.29-3.75-0.87c-1.47-0.74-2.36-2.81-1.67-4.59
							c1.37-3.51,4.09-2.52,5.46-2.14c0.33,0.09,0.67-0.11,0.75-0.44c3.97-16.51,11.14-15.03,13.27-14.84
							C131.817,119.571,141.537,121.241,141.827,135.181z"/>
						<path style="fill:#A95533;" d="M132.31,150.768l-5.995-0.744l0.431,0.694C128.041,152.8,130.949,152.826,132.31,150.768
							L132.31,150.768z"/>
						<path style="fill:#422F3A;" d="M136.428,118.51c1.773,2.691-0.728,10.807-7.749,6.984c-2.507-1.365-4.792,5.469-7.339,6.803
							c-4.496,2.356-6.268,1.468-7.249-0.415C114.091,131.881,125.067,101.261,136.428,118.51z"/>
						<path style="fill:#422F3A;" d="M135.82,119.02c0,0,1.587,5.493,5.922,9.63C141.741,128.65,144.672,120.922,135.82,119.02z"/>
						<g>
							<g>
								<path style="fill:#122030;" d="M129.35,135.085c-0.129,0.801,0.416,1.554,1.217,1.683c0.801,0.129,1.555-0.416,1.683-1.217
									c0.129-0.801-0.416-1.555-1.217-1.683C130.232,133.739,129.479,134.284,129.35,135.085z"/>
							</g>
							<g>
								<path style="fill:#122030;" d="M137.563,134.158c-0.129,0.801,0.416,1.554,1.217,1.683c0.801,0.129,1.554-0.416,1.683-1.217
									c0.129-0.801-0.416-1.554-1.217-1.683C138.445,132.812,137.691,133.357,137.563,134.158z"/>
							</g>
							<g>
								<path style="fill:#122030;" d="M136.453,140.857c-0.161,0.017-0.322-0.067-0.396-0.221
									c-0.094-0.196-0.011-0.432,0.184-0.526c0.674-0.325,0.993-0.62,1.065-0.988c0.115-0.576-0.357-1.476-1.366-2.603
									c-0.145-0.162-0.13-0.411,0.031-0.556c0.163-0.145,0.411-0.133,0.557,0.031c1.229,1.375,1.723,2.418,1.551,3.283
									c-0.16,0.803-0.846,1.232-1.497,1.545C136.541,140.84,136.498,140.852,136.453,140.857z"/>
							</g>
							<g>
								<path style="fill:#122030;" d="M127.525,131.981c-0.132-0.001-0.264-0.06-0.354-0.171c-0.162-0.198-0.131-0.489,0.067-0.651
									c1.383-1.126,3.349-1.438,5.015-0.794c0.238,0.092,0.356,0.36,0.264,0.598c-0.091,0.239-0.359,0.357-0.598,0.265
									c-1.337-0.518-2.984-0.257-4.097,0.648C127.735,131.948,127.63,131.982,127.525,131.981z"/>
							</g>
							<g>
								<path style="fill:#122030;" d="M136.607,130.681c-0.086-0.013-0.167-0.053-0.23-0.121c-0.148-0.159-0.139-0.408,0.02-0.556
									c1.157-1.076,3.102-1.063,4.244,0.03c0.157,0.15,0.163,0.4,0.013,0.556c-0.152,0.158-0.401,0.162-0.557,0.013
									c-0.837-0.8-2.315-0.812-3.164-0.023C136.842,130.665,136.721,130.698,136.607,130.681z"/>
							</g>
							<path style="opacity:0.53;fill:#A95533;" d="M130.694,141.378c-0.364,1.109-1.559,1.714-2.668,1.349
								c-1.109-0.364-1.714-1.559-1.349-2.668c0.364-1.109,1.559-1.714,2.668-1.349
								C130.454,139.074,131.058,140.268,130.694,141.378z"/>
							<path style="opacity:0.53;fill:#A95533;" d="M141.827,136.791c-0.02,1.56-0.15,2.95-0.34,4.19c-0.1-0.01-0.21-0.04-0.31-0.07
								c-1.11-0.36-1.71-1.56-1.35-2.67C140.127,137.351,140.937,136.791,141.827,136.791z"/>
							<path style="fill:#FFFFFF;" d="M132.715,141.999l5.16,0.942c0,0-0.613,2.549-2.493,2.723
								C133.502,145.838,132.086,144.175,132.715,141.999z"/>
							<g>
								<path style="fill:#122030;" d="M115.932,140.015c-0.218-0.001-0.412-0.154-0.46-0.375c-0.166-0.787-0.729-1.474-1.47-1.792
									c-0.738-0.319-1.626-0.257-2.312,0.165c-0.22,0.136-0.513,0.068-0.649-0.157c-0.136-0.223-0.067-0.513,0.156-0.649
									c0.944-0.577,2.164-0.663,3.179-0.226c1.017,0.437,1.792,1.382,2.02,2.464c0.054,0.255-0.109,0.507-0.364,0.56
									C115.998,140.012,115.965,140.015,115.932,140.015z"/>
							</g>
							<g>
								<path style="fill:#122030;" d="M113.66,139.726c-0.08,0-0.161-0.022-0.235-0.064c-0.225-0.131-0.302-0.42-0.171-0.646
									l0.871-1.497c0.131-0.227,0.422-0.3,0.646-0.171c0.225,0.131,0.302,0.421,0.17,0.646l-0.871,1.497
									C113.983,139.643,113.823,139.727,113.66,139.726z"/>
							</g>
						</g>
						<g>
							<path style="fill:none;stroke:#422F3A;stroke-width:0.4823;stroke-miterlimit:10;" d="M112.406,113.797
								c0.473-0.72,0.422-1.655,0.298-2.507c-0.258-1.767-0.877-3.663-2.405-4.588c-0.91-0.551-2.069-0.669-3.071-0.312
								c-1.002,0.357-1.826,1.182-2.182,2.184c-0.199,0.561-0.261,1.176-0.56,1.691c-0.562,0.97-1.771,1.312-2.862,1.569"/>
							<path style="fill:none;stroke:#422F3A;stroke-width:0.4823;stroke-miterlimit:10;" d="M134.563,106.876
								c1.58,0.652,3.322,1.468,3.908,3.073c0.137,0.375,0.199,0.772,0.248,1.169c0.081,0.656,0.126,1.316,0.134,1.977
								c0.008,0.616-0.02,1.252-0.277,1.812c-0.428,0.933-1.435,1.497-2.45,1.654c-1.015,0.157-2.048-0.03-3.054-0.236"/>
							<path style="fill:none;stroke:#422F3A;stroke-width:0.4823;stroke-miterlimit:10;" d="M137.598,121.394
								c0.367,1.692-0.249,3.561-1.55,4.704c-1.3,1.143-3.233,1.513-4.864,0.933c-1.504-0.536-2.656-1.768-4.095-2.46
								c-1.604-0.771-3.542-0.811-5.176-0.105"/>
							<path style="fill:none;stroke:#422F3A;stroke-width:0.4823;stroke-miterlimit:10;" d="M119.191,129.305
								c-1.178,0.698-2.371,1.462-3.133,2.6c-0.761,1.137-0.981,2.748-0.168,3.849c0.563,0.763,1.489,1.144,2.298,1.638
								c0.809,0.494,1.598,1.272,1.548,2.218c-0.066,1.233-1.422,1.894-2.297,2.765c-1.128,1.124-1.523,2.924-0.968,4.416
								c0.313,0.84,0.946,1.603,1.802,1.868c0.856,0.266,1.92-0.092,2.282-0.912"/>
						</g>
					</g>
					<g>
						<path style="fill:#D57E5A;" d="M144.861,425.658l1.829,27.939c0,0,5.924,7.265,9.434,3.407
							c1.755-1.929,7.13-3.936,7.983-5.084c-1.745-1.095-5.885-4.22-5.885-4.22l1.527-21.711L144.861,425.658z"/>
						<path style="fill:#A95533;" d="M154.123,428.654l-0.799,7.567c0,0-6.688,18.374-7.07,16.15l-1.134-22.831L154.123,428.654z"/>
						<path style="fill:#ECB333;" d="M158.442,447.312l15.244,11.136c0.646,0.536,0.121,1.352-0.842,1.309
							c0,0-28.434-1.677-28.453-2.095c-0.118-2.592,1.396-7.928,1.416-8.301c0.072-1.348,3.982,2.784,6.736,3.732
							C154.069,452.655,158.011,446.954,158.442,447.312z"/>
					</g>
					<g>
						<path style="fill:#D57E5A;" d="M86.451,434.312l-4.85,20.88c0,0,6.903,8.812,10.065,4.665c1.581-2.074,6.761-4.54,7.512-5.758
							c-1.833-0.939-6.229-3.693-6.229-3.693l5.638-16.803L86.451,434.312z"/>
						<path style="fill:#A95533;" d="M91.09,433.855l-0.239,1.81c0,0-8.845,22.615-9.419,20.433l2.761-22.01L91.09,433.855z"/>
						<path style="fill:#ECB333;" d="M93.135,449.999l16.153,9.771c0.69,0.478,0.238,1.337-0.725,1.377
							c0,0-30.753,0.593-30.808,0.179c1.238-3.344,2.548-10.342,4.106-13.096c0.169-0.299,2.408,4.549,5.234,5.254
							C88.575,452.915,92.674,449.68,93.135,449.999z"/>
					</g>
					<g>
						<path style="fill:#733432;" d="M106.72,221.953c-5.021,11.195-7.473,19.28-9.666,33.122
							c-2.543,16.053-20.048,151.459-19.274,180.153c5.052,0.729,35.759-2.942,38.865-3.407
							c3.341-28.755,12.686-130.955,15.27-149.283c0.397-2.817,5.102-2.574,4.643,0.234c-4.079,24.963,0.296,116.355,0.809,147.649
							c8.108-0.305,30.641-3.659,33.598-4.313c-0.026-35.422,4.337-167.964-25.763-208.622
							C133.125,216.955,118.776,220.463,106.72,221.953z"/>
						<g style="opacity:0.48;">
							<path style="fill:#9E5D32;" d="M124.178,357.211c0.544-5.56,1.087-11.105,1.62-16.528c-15.445,2.288-16.256,18.306-13.591,31
								c1.531,7.295,4.271,15.46,8.325,22.676c1.078-10.877,2.245-22.824,3.413-34.773
								C123.825,358.8,123.886,357.986,124.178,357.211z"/>
							<path style="fill:#9E5D32;" d="M159.633,275.877c1.915,4.588,4.014,9.116,6.6,13.339c-2.115-17.154-5.107-33.309-9.33-46.761
								C148.432,249.141,156.467,268.293,159.633,275.877z"/>
							<path style="fill:#9E5D32;" d="M145.281,328.444c2.037-10.224-3.05-18.699-10.204-25.323
								c-0.352,12.235-0.26,27.558,0.036,43.511C139.961,341.426,143.901,335.37,145.281,328.444z"/>
							<path style="fill:#9E5D32;" d="M153.946,388.27c1.467,11.616,8.462,22.263,17.056,30.024
								c0.106-13.456,0.371-33.913-0.12-56.936C159.279,366.072,152.322,375.409,153.946,388.27z"/>
							<path style="fill:#9E5D32;" d="M107.596,304.788c1.175-8.215,0.481-17.784-2.376-25.592
								c-2.01-5.495-5.419-10.092-9.623-13.927c-2.014,14.73-5.462,41.502-8.795,69.775
								C97.411,327.844,105.68,318.193,107.596,304.788z"/>
						</g>
						<path style="fill:none;stroke:#FFFFFF;stroke-width:0.4589;stroke-miterlimit:10;" d="M144.081,222.3
							c0,0,13.075,25.289,16.54,62.382s1.38,131.622,1.38,131.622"/>
						
							<line style="fill:none;stroke:#FFFFFF;stroke-width:0.4589;stroke-miterlimit:10;" x1="89.011" y1="419.74" x2="112.842" y2="223.997"/>
						<path style="fill:none;stroke:#FFFFFF;stroke-width:0.4589;stroke-miterlimit:10;" d="M120.374,224.34
							c0,0,2.813,34.01-12.686,32.755"/>
						<path style="opacity:0.21;" d="M145.529,222.863l-45.635,41.55c0,0-3.913-19.756,3.279-36.943L145.529,222.863z"/>
						<path style="fill:none;stroke:#FFFFFF;stroke-width:0.4589;stroke-miterlimit:10;" d="M158.609,253.22
							c-14.999,4.104-19.225-28.911-19.225-28.911"/>
					</g>
					
						<line style="fill:none;stroke:#FFFFFF;stroke-width:0.4589;stroke-miterlimit:10;" x1="137.858" y1="417.432" x2="170.388" y2="415.521"/>
					
						<line style="fill:none;stroke:#FFFFFF;stroke-width:0.4589;stroke-miterlimit:10;" x1="77.37" y1="420.75" x2="118.798" y2="418.649"/>
					<g>
						<path style="fill:#D57E5A;" d="M167.549,195.055c0.217,0.641,13.991-16.876,13.991-16.876s11.925-19.26,12.97-18.321
							c1.514,1.361-3.008,9.876-3.008,9.876s0.429,0.885,1.504,1.247c1.074,0.362,1.711,0.996,2.184,2.339
							c0.472,1.343,1.922,2.017,2.227,2.798c0.304,0.781-4.251,7.295-6.958,9.667c0,0-4.305,7.321-10.161,16.228"/>
						<path style="fill:#D57E5A;" d="M181.988,178.022c0,0,2.023-8.05,3.19-7.928c1.167,0.122,6.413,1.829,6.481,3.788
							c0.067,1.959-4.437,0.761-4.437,0.761s1.209,4.28-0.915,5.056C184.183,180.476,181.988,178.022,181.988,178.022z"/>
						<g>
							<path style="fill:#A95533;" d="M188.433,175.039c0,0-0.034,1.176,1.603,1.37c0,0,0.589,2.428,2.609,1.777
								c0,0-0.253,1.224,1.029,1.335C193.674,179.522,188.648,186.001,188.433,175.039z"/>
							<g>
								<path style="fill:#A95533;" d="M187.071,170.478c1.132,0.257,2.238,0.608,3.341,0.972c0.278,0.086,0.554,0.178,0.824,0.284
									c0.265,0.095,0.558,0.206,0.844,0.382c0.277,0.175,0.587,0.396,0.767,0.817c0.191,0.424,0.039,0.971-0.222,1.255
									c-0.53,0.556-1.102,0.771-1.709,0.961c-0.601,0.163-1.201,0.251-1.79,0.252c-0.291,0-0.626,0.009-0.637,0.036
									c-0.05-0.113,0.021,0.294,0.083,0.557c0.09,0.573,0.209,1.139,0.275,1.719l-0.049,0.014l-0.484-1.659l-0.121-0.415
									c-0.042-0.132-0.068-0.317,0.05-0.442c0.25-0.222,0.572-0.159,0.847-0.205c1.12-0.106,2.348-0.317,3.143-1.145
									c0.185-0.206,0.262-0.499,0.159-0.754c-0.099-0.255-0.325-0.447-0.56-0.599c-0.482-0.3-1.048-0.461-1.573-0.692
									l-3.205-1.291L187.071,170.478z"/>
							</g>
							<g>
								<path style="fill:#A95533;" d="M191.616,169.51c0.01,0.271-0.056,0.485-0.134,0.689c-0.078,0.204-0.215,0.365-0.321,0.548
									c-0.163,0.141-0.291,0.308-0.481,0.427c-0.189,0.121-0.389,0.233-0.666,0.288l-0.041-0.031
									c0.512-0.668,1.045-1.319,1.602-1.953L191.616,169.51z"/>
							</g>
							<g>
								<path style="fill:#A95533;" d="M194.214,172.185c-0.203,0.598-0.518,1.135-0.87,1.645c-0.354,0.51-0.787,0.954-1.216,1.401
									c-0.486,0.398-0.925,0.797-1.502,1.123c-0.298,0.152-0.641,0.286-1.012,0.272c-0.352-0.036-0.724-0.197-0.864-0.508
									l0.038-0.034c0.431,0.453,1.16,0.29,1.616-0.059c0.484-0.351,0.937-0.756,1.376-1.167c0.885-0.817,1.689-1.723,2.393-2.703
									L194.214,172.185z"/>
							</g>
							<g>
								<path style="fill:#A95533;" d="M190.085,176.335c0.35,0.605,0.72,1.262,1.212,1.386c0.459,0.145,0.992-0.131,1.448-0.573
									c0.492-0.387,0.909-0.948,1.383-1.449c0.469-0.51,0.939-1.025,1.47-1.508l0.043,0.028c-0.38,0.586-0.781,1.157-1.197,1.718
									c-0.421,0.555-0.838,1.121-1.363,1.595c-0.505,0.445-1.247,0.87-1.945,0.553c-0.678-0.326-0.909-1.088-1.099-1.735
									L190.085,176.335z"/>
							</g>
							<g>
								<path style="fill:#A95533;" d="M192.799,177.947c0.194,0.347,0.419,0.644,0.646,0.784c0.055,0.037,0.117,0.038,0.153,0.056
									c0.029,0.011,0.078,0.016,0.16,0.022c0.14,0.009,0.285-0.009,0.431-0.045c0.308-0.016,0.595-0.156,1.009-0.252
									c0.199-0.033,0.357-0.047,0.497-0.1c0.165-0.028,0.317-0.143,0.508-0.233l0.041,0.03c-0.202,0.324-0.538,0.569-0.901,0.678
									c-0.346,0.137-0.69,0.324-1.076,0.378c-0.367,0.044-0.817,0.043-1.097-0.262c-0.266-0.289-0.396-0.672-0.422-1.053
									L192.799,177.947z"/>
							</g>
						</g>
					</g>
					<path style="fill:#ECB333;" d="M132.842,161.864c0,0,10.613-1.813,14.403,4.393c3.79,6.206,12.636,30.586,12.636,30.586
						l19.649-18.712l12.076,16.351c0,0-27.567,37.635-35.825,35.895C147.523,228.636,133.577,170.738,132.842,161.864z"/>
					<path style="fill:#D57E5A;" d="M147.084,166.018c-3.916-5.912-14.242-4.153-14.242-4.153l6.865,8.881
						C142.161,169.162,144.622,167.589,147.084,166.018z"/>
					<g>
						<path style="fill:#ECB333;" d="M131.626,160.257c1.776,1.473,18.415,27.017,19.523,35.245
							c1.226,9.096,1.247,31.464,1.247,31.464s-47.858,4.847-48.755,5.307c-4.978-24.247-7.4-56.189-1.19-60.687
							c0,0,9.778-11.974,11.54-13.286C113.992,158.3,130.858,166.064,131.626,160.257z"/>
					</g>
					<g>
						<path style="fill:#D39926;" d="M105.976,174.807c-1.075,1.299-3.524-3.221-3.524-3.221c-6.21,4.498-3.788,36.44,1.19,60.687
							c0.897-0.46,48.755-5.307,48.755-5.307s-0.005-4.482-0.119-10.245C136.276,200.941,122.192,190.367,105.976,174.807z"/>
					</g>
				</g>
				<path style="fill:#D57E5A;" d="M155.19,213.559c11.153-14.707,16.704-25.184,17.798-27.072c0.625-1.079,2.165-4.523,1.821-4.903
					c-0.788-0.868-3.982,5.978-3.971,5.591c0.011-0.386,4.435-7.829,3.816-8.546c-0.93-1.078-5.716,7.311-5.803,7.448
					c-1.322,2.082,4.892-7.848,4.431-8.742c-0.46-0.894-3.607,3.439-3.721,3.591c0,0-2.475,3.87-2.795,3.749
					c-0.32-0.121,2.882-9.855,1.816-9.678c-1.066,0.178-4.095,6.972-4.901,8.471c-0.806,1.499-2.5,3.257-3.203,3.376
					c-0.593,0.102-1.878-2.191-1.731-3.63c0,0-1.864,3.96-1.893,6.774c-0.015,1.48,0.266,3.263,0.266,3.263l-9.496,12.1
					L155.19,213.559z"/>
				<path style="fill:#ECB333;" d="M113.754,178.85c0,0-7.461-11.903-12.096-6.409c-7.843,9.296-0.297,38.999,27.497,63.11
					c9.027,7.83,37.745-32.238,37.745-32.238l-13.645-11.084l-16.216,19.508L113.754,178.85z"/>
				<path style="fill:#D57E5A;" d="M113.454,178.394c-1.43-2.122-7.71-10.797-11.797-5.953c-3.071,3.64-3.77,10.415-1.831,18.75
					C104.244,186.791,108.795,182.534,113.454,178.394z"/>
				<g>
					
						<line style="fill:none;stroke:#233D67;stroke-width:0.4435;stroke-miterlimit:10;" x1="163.064" y1="450.226" x2="160.38" y2="455.901"/>
					
						<line style="fill:none;stroke:#233D67;stroke-width:0.4435;stroke-miterlimit:10;" x1="160.961" y1="449.217" x2="158.276" y2="454.892"/>
				</g>
				<g>
					
						<line style="fill:none;stroke:#233D67;stroke-width:0.4435;stroke-miterlimit:10;" x1="97.583" y1="452.511" x2="94.899" y2="458.187"/>
					
						<line style="fill:none;stroke:#233D67;stroke-width:0.4435;stroke-miterlimit:10;" x1="95.48" y1="451.502" x2="92.795" y2="457.178"/>
				</g>
				<g>
					<g>
						<polygon style="fill:#9E5D32;" points="75.351,436.351 76.36,414.409 120.193,411.188 120.01,432.616 						"/>
						<path style="fill:#7D4030;" d="M91.805,430.136c-6.903-3.719-12.059-9.027-15.461-15.373l-0.993,21.588l26.379-2.206
							C98.293,433.147,94.96,431.836,91.805,430.136z"/>
					</g>
					<g>
						<polygon style="fill:#9E5D32;" points="132.532,431.009 133.541,409.067 177.373,405.846 177.19,427.274 						"/>
						<path style="fill:#7D4030;" d="M146.235,420.975c-4.431-3.122-7.935-7.347-10.713-12.053l-1.981,0.146l-0.967,21.802
							c2.335,0.245,31.986-2.538,31.986-2.538C158.031,427.072,151.667,424.802,146.235,420.975z"/>
					</g>
				</g>
			</g>
		</g>
		<path style="fill:#ECB333;" d="M214.102,51.512c-1.829,0.693-3.769,3.852-3.896,5.804c-0.303,4.689-0.746,14.533,0.202,22.39
			c1.293,10.711,35.828,8.126,37.49,8.126c1.662,0,5.725,9.648,11.265,12.119c5.54,2.471-3.853-8.056-4.05-12.857
			c0,0,13.521,0.739,18.574-2.401c5.052-3.139,5.94-23.17,3.181-31.949C274.43,44.987,229.126,45.815,214.102,51.512z"/>
		<path style="fill:#ECB333;" d="M192.242,69.756c1.829,0.693,3.769,3.853,3.895,5.804c0.303,4.689,0.746,14.533-0.202,22.39
			c-1.293,10.711-35.828,8.126-37.49,8.126c-1.662,0-5.725,9.648-11.265,12.119c-5.54,2.471,3.853-8.056,4.05-12.857
			c0,0-13.521,0.739-18.574-2.401c-5.052-3.14-5.94-23.171-3.181-31.949C131.914,63.23,177.217,64.059,192.242,69.756z"/>
	</g>
	<g>
		<g>
			<g>
				<path style="fill:#122030;" d="M590.949,444.893l-0.069,15.264c0,0-19.888,0.662-20.886-0.632
					c-0.998-1.294,9.146-7.666,9.146-7.666l0.094-10.846L590.949,444.893z"/>
				<path style="fill:#122030;" d="M645.79,445.043l2.022,15.13c0,0-19.61,3.38-20.776,2.235c-1.166-1.145,8.01-8.847,8.01-8.847
					l-1.392-10.757L645.79,445.043z"/>
				<g>
					<path style="fill:#D39260;" d="M519.482,173.829c2.354,1.776,7.645,8.848,7.645,8.848l-5.382,8.5l-6.827-9.72L519.482,173.829z
						"/>
					<path style="fill:#D39260;" d="M519.482,173.829c0,0-12.516-9.92-13.812-9.546c-1.296,0.375,4.412,6.503,4.412,6.503
						s-15.487-0.35-16.036,0.493c-0.549,0.843,10.016,2.058,10.016,2.058s-9.538,0.468-10.087,1.311
						c-0.549,0.842,10.144,1.713,10.144,1.713s-10.208,0.682-10.647,1.781c-0.439,1.099,10.964,0.936,10.964,0.936
						s-7.497,2.32-7.394,3.059c0.103,0.74,17.874-0.68,17.874-0.68L519.482,173.829z"/>
					<path style="fill:#ECB333;" d="M559.19,141.579c-8.411,5.089-16.094,58.114-16.094,58.114l-17.6-25.25l-9.607,11.671
						c0,0,15.572,34.612,27.978,36.968c12.406,2.356,24.016-36.575,24.016-36.575L559.19,141.579z"/>
					<path style="fill:#ECB333;" d="M593.849,132.442c8.98,0.713,27.767,9.235,31.158,13.066l-4.598,31.544
						c0,0,1.017,34.692,1.766,49.766c0.256,5.157,0.405,7.947,0.405,7.947l-55.838-1.257c0,0-5.405-0.874-5.23-8.621
						c0.37-16.43-0.21-61.96-0.21-61.96l-2.111-21.347C559.19,141.579,572.676,130.762,593.849,132.442z"/>
					<g>
						<path style="fill:#422F3A;" d="M578.054,92.368c0,0-3.339,6.213-2.77,12.554c0.569,6.342,6.558-12.533,6.558-12.533
							L578.054,92.368z"/>
						<g>
							<path style="fill:#D39260;" d="M595.027,136.076l5.823-18.094c0,0,6.934,3.478,8.305-2.385
								c1.222-5.224-4.483-6.402-7.586-4.288c0,0,7.466-17.811-8.33-21.432c-15.797-3.621-18.898,18.264-19.672,23.557
								c-1.364,9.322,4.733,14.705,9.515,15.821l-1.143,5.675c0,0-1.058,4.959,3.624,5.781
								C591.802,141.807,595.027,136.076,595.027,136.076z"/>
						</g>
						<g>
							<path style="fill:#D39260;" d="M575.816,108.115c0,0-6.084-5.269-8.109,0.822c-2.226,6.698,7.477,5.928,7.477,5.928
								L575.816,108.115z"/>
						</g>
						<g>
							<path style="fill:#122030;" d="M573.797,113.721c-0.001,0-0.004,0-0.005,0c-0.278-0.009-0.495-0.241-0.487-0.519
								c0.05-1.529,0.252-3.058,0.601-4.545c0.063-0.27,0.338-0.441,0.605-0.375c0.27,0.064,0.439,0.335,0.375,0.605
								c-0.334,1.422-0.528,2.884-0.575,4.347C574.301,113.511,574.072,113.728,573.797,113.721z"/>
						</g>
						<g>
							<path style="fill:#122030;" d="M573.782,111.183c-0.043-0.001-0.085-0.007-0.129-0.02l-2.231-0.647
								c-0.267-0.077-0.42-0.356-0.343-0.623c0.077-0.266,0.351-0.422,0.623-0.343l2.231,0.647c0.266,0.077,0.42,0.356,0.343,0.623
								C574.212,111.043,574.005,111.188,573.782,111.183z"/>
						</g>
						<g>
							<path style="fill:#122030;" d="M602.387,115.744c-0.032-0.001-0.064-0.005-0.097-0.012c-0.272-0.06-0.442-0.329-0.383-0.601
								c0.239-1.076,1.019-2.01,2.036-2.436c1.017-0.425,2.231-0.328,3.164,0.255c0.237,0.147,0.308,0.457,0.161,0.693
								c-0.146,0.237-0.457,0.308-0.692,0.16c-0.665-0.414-1.525-0.481-2.244-0.18c-0.72,0.302-1.272,0.964-1.442,1.727
								C602.837,115.588,602.622,115.749,602.387,115.744z"/>
						</g>
						<g>
							<path style="fill:#122030;" d="M604.628,115.48c-0.171-0.004-0.336-0.095-0.426-0.255l-0.844-1.482
								c-0.137-0.241-0.053-0.549,0.189-0.686c0.238-0.137,0.547-0.055,0.686,0.188l0.844,1.484
								c0.137,0.241,0.053,0.548-0.189,0.686C604.807,115.461,604.717,115.482,604.628,115.48z"/>
						</g>
						<g>
							<path style="fill:#122030;" d="M594.26,103.558c-0.111-0.003-0.221-0.041-0.312-0.117c-1.334-1.116-3.325-1.46-4.955-0.855
								c-0.258,0.098-0.549-0.035-0.647-0.297c-0.096-0.26,0.037-0.549,0.297-0.646c1.988-0.738,4.324-0.336,5.951,1.026
								c0.213,0.178,0.241,0.495,0.062,0.708C594.555,103.5,594.408,103.561,594.26,103.558z"/>
						</g>
						<g>
							<path style="fill:#122030;" d="M583.926,102.536c-0.144-0.003-0.286-0.068-0.383-0.19c-1.031-1.301-3.125-1.607-4.486-0.654
								c-0.225,0.159-0.54,0.104-0.701-0.123c-0.159-0.228-0.104-0.541,0.124-0.701c1.802-1.265,4.482-0.874,5.851,0.853
								c0.172,0.218,0.135,0.534-0.083,0.706C584.153,102.504,584.039,102.539,583.926,102.536z"/>
						</g>
						<path style="fill:#122030;" d="M583.08,129.255c3.11,0.955,9.687-1.13,9.687-1.13s-4.422,4.04-10.27,4.026L583.08,129.255z"/>
						<path style="fill:#CE7457;" d="M591.012,115.053c0.227,1.36,1.513,2.279,2.872,2.052c1.36-0.227,2.278-1.513,2.052-2.872
							c-0.227-1.36-1.513-2.279-2.872-2.052C591.703,112.408,590.785,113.694,591.012,115.053z"/>
						<path style="fill:#CE7457;" d="M574.996,112.196c0.227,1.36,1.513,2.278,2.872,2.052c1.36-0.227,2.278-1.512,2.052-2.872
							c-0.227-1.36-1.513-2.278-2.872-2.052C575.688,109.55,574.77,110.836,574.996,112.196z"/>
					</g>
					<g>
						<path style="fill:#122030;" d="M584.06,114.559c-0.117-0.003-0.233-0.045-0.326-0.129l-1.143-1.033
							c-0.156-0.142-0.209-0.367-0.129-0.563l2.469-6.055c0.106-0.257,0.401-0.38,0.656-0.276c0.257,0.105,0.381,0.399,0.277,0.655
							l-2.337,5.728l0.882,0.796c0.206,0.186,0.221,0.504,0.035,0.71C584.342,114.506,584.201,114.562,584.06,114.559z"/>
					</g>
					<g>
						<path style="fill:#122030;" d="M591.758,108.488c-0.178-0.004-0.349-0.103-0.436-0.273c-0.31-0.601-0.943-1.034-1.616-1.103
							c-0.656-0.075-1.383,0.225-1.806,0.752c-0.174,0.217-0.491,0.251-0.707,0.076c-0.216-0.174-0.25-0.491-0.076-0.708
							c0.642-0.795,1.656-1.229,2.692-1.121c1.017,0.104,1.939,0.734,2.408,1.644c0.126,0.247,0.029,0.55-0.218,0.677
							C591.923,108.471,591.839,108.489,591.758,108.488z"/>
					</g>
					<g>
						<path style="fill:#122030;" d="M583.172,107.422c-0.21-0.005-0.401-0.141-0.467-0.351c-0.189-0.595-0.7-1.087-1.302-1.254
							c-0.603-0.168-1.293-0.007-1.761,0.406c-0.206,0.184-0.527,0.164-0.71-0.045c-0.184-0.208-0.164-0.526,0.044-0.71
							c0.727-0.641,1.755-0.878,2.695-0.62c0.935,0.259,1.699,0.994,1.991,1.919c0.084,0.265-0.062,0.547-0.326,0.631
							C583.281,107.415,583.226,107.423,583.172,107.422z"/>
					</g>
					<path style="fill:#422F3A;" d="M576.194,84.082c-2.026,1.957-3.16,4.898-2.262,7.568c0.898,2.67,3.405,4.664,6.175,5.176
						c2.77,0.512,5.714-0.379,7.903-2.152c0.013,1.122,0.824,2.13,1.778,2.721c0.954,0.591,2.212,0.657,3.223,0.169
						c1.141,2.954,4.268,5.017,7.432,4.905c-1.663,4.156-2.222,9.078-1.827,13.537c0,0,1.617-4.301,5.249-5.599
						c0,0,10.03-10.218,3.313-12.008c0,0,4.145-3.878-2.849-8.602C597.336,85.073,581.576,78.883,576.194,84.082z"/>
					<polygon style="fill:#422F3A;" points="622.58,234.764 651.162,447.405 625.443,446.826 593.518,254.717 597.047,446.988 
						574.549,446.481 561.656,233.392 					"/>
					<path style="fill:#8D5125;" d="M606.338,135.723l-9.221,23.268l-22.454-0.506l-0.877-23.95l-4.77,1.669l-0.083,22.729
						l-8.044,16.191c0,0-1.272,37.781-2.061,59.983c-0.789,22.203-0.162,131.08-0.162,131.08l86.55,1.949l-24.807-191.085
						l-16.296-17.523l6.558-22.086L606.338,135.723z"/>
					<polygon style="fill:#D39260;" points="612.934,206.337 603.936,204.273 603.773,211.49 612.604,210.652 					"/>
					<path style="fill:#ECB333;" d="M625.007,145.508c7.555,6.088,30.087,59.439,28.429,70.601
						c-1.658,11.163-41.59,4.462-41.59,4.462l1.247-16.322l21.573,2.244l-14.257-29.441L625.007,145.508z"/>
					<polygon style="fill:#733432;" points="608.877,197.044 608.207,192.512 587.971,192.056 587.098,196.554 					"/>
					<polygon style="fill:#C27735;" points="604.651,226.858 589.978,226.528 587.438,197.474 608.496,197.948 					"/>
					<polygon style="fill:#FBF8F0;" points="606.756,215.867 608.365,203.768 587.307,203.294 588.37,215.453 					"/>
					<polygon style="fill:#733432;" points="610.18,199.122 609.428,194.028 586.683,193.516 585.702,198.571 					"/>
					<path style="fill:#D39260;" d="M612.826,207.747c0,0-21.338,1.081-22.186,2.546c-0.848,1.465,9.745,1.704,9.745,1.704
						s-9.898,1.175-9.88,2.34c0.018,1.165,10.396,0.584,10.396,0.584s-9.59,1.764-9.613,2.812c-0.024,1.048,9.788-0.245,9.788-0.245
						s-6.111,2.425-5.671,3.599c0.439,1.174,16.624-2.892,16.624-2.892L612.826,207.747z"/>
					<path style="fill:#122030;" d="M581.842,117.14l6.473-1.133c0,0,0.013,3.713-2.414,5.289
						C583.474,122.873,581.055,119.513,581.842,117.14z"/>
				</g>
				<path style="opacity:0.3;fill:#BAAD93;" d="M539.158,461.337c0.07,3.808,33.067,6.287,73.7,5.537
					c40.633-0.751,73.515-4.447,73.445-8.255c-0.07-3.808-33.067-6.287-73.699-5.536
					C571.97,453.833,539.088,457.529,539.158,461.337z"/>
			</g>
			<path style="fill:#ECB333;" d="M517.419,38.251c-1.829,0.693-3.769,3.853-3.896,5.804c-0.303,4.689-0.746,14.533,0.202,22.39
				c1.293,10.711,35.828,8.126,37.49,8.126c1.662,0,5.725,9.648,11.265,12.119c5.54,2.471-3.853-8.056-4.05-12.857
				c0,0,13.521,0.739,18.574-2.401c5.052-3.14,5.94-23.171,3.181-31.949C577.747,31.726,532.444,32.555,517.419,38.251z"/>
		</g>
		<g>
			<g>
				<path style="opacity:0.3;fill:#BAAD93;" d="M522.054,460.848c0,3.585-31.011,6.492-69.265,6.492
					c-38.254,0-69.266-2.907-69.266-6.492c0-3.586,31.011-6.492,69.266-6.492C491.042,454.356,522.054,457.263,522.054,460.848z"/>
				<path style="fill:#733432;" d="M435.113,158.029c-0.034,6.328-5.191,11.431-11.519,11.397
					c-6.328-0.033-11.431-5.191-11.397-11.519c0.033-6.328,5.191-11.431,11.519-11.398
					C430.044,146.544,435.147,151.701,435.113,158.029z"/>
				<path style="fill:#D39260;" d="M486.823,274.095l0.227,1.866c0.308,2.527,1.682,4.802,3.775,6.251l0,0
					c0,0-0.221,7.393,0.837,7.8c1.058,0.408,2.352-6.497,2.352-6.497s-0.707,6.414,0.299,6.566c1.006,0.152,2.295-6.018,2.295-6.018
					s-0.703,6.11,0.542,6.125c1.245,0.015,4.059-7.504,3.485-10.356c-0.574-2.852-4.501-6.052-4.501-6.052l-4.613-3.719"/>
				<path style="fill:#D39260;" d="M496.268,267.07c0,0,1.41,4.655,2.935,6.091c1.462,1.376,3.883,8.709,2.844,9.274
					c-1.04,0.564-4.508-4.326-4.508-4.326l-1.642-3.306l-7.603-2.512L496.268,267.07z"/>
				<path style="fill:#FBF8F0;" d="M440.973,173.183c0,0-6.46,1.76-12.995,4.468c-3.921,1.625-4.707,63.637-4.707,63.637
					l42.681-5.889l2-27.753c0,0,9.922-8.795,5.142-19.386C467.686,176.278,457.551,172.312,440.973,173.183z"/>
				<path style="fill:#733432;" d="M457.647,134.877c-2.286-4.512-6.396-7.564-10.785-8.961c-6.241-1.986-13.311-0.721-18.469,3.781
					c-5.157,4.502-8.129,12.267-7.086,19.59c1.042,7.323,6.273,13.747,12.662,14.976c4.341,0.835,8.832-0.616,12.684-3.063
					C455.041,155.869,463.64,146.702,457.647,134.877z"/>
				<g>
					<path style="fill:#D39260;" d="M435.361,176.09l-5.737-18.417c0,0-7.07,3.464-8.406-2.499c-1.19-5.313,4.61-6.455,7.739-4.279
						c0,0-7.408-18.145,8.656-21.671c16.065-3.525,19.005,18.713,19.741,24.092c1.296,9.473-4.943,14.878-9.805,15.965l1.107,5.77
						c0,0,1.027,5.042-3.733,5.832C438.58,181.936,435.361,176.09,435.361,176.09z"/>
				</g>
				<g>
					<path style="fill:#D39260;" d="M455.122,147.898c0,0,6.224-5.29,8.221,0.911c2.196,6.818-7.644,5.944-7.644,5.944
						L455.122,147.898z"/>
				</g>
				<g>
					<path style="fill:#122030;" d="M440.124,149.362c-0.016,0.972,0.759,1.772,1.731,1.789c0.972,0.016,1.772-0.759,1.789-1.731
						c0.016-0.972-0.759-1.772-1.73-1.788C440.941,147.615,440.141,148.39,440.124,149.362z"/>
				</g>
				<g>
					<path style="fill:#122030;" d="M448.703,148.19c-0.016,0.972,0.758,1.773,1.73,1.789c0.972,0.016,1.772-0.759,1.789-1.73
						c0.016-0.972-0.759-1.772-1.73-1.789C449.52,146.444,448.719,147.219,448.703,148.19z"/>
				</g>
				<g>
					<path style="fill:#122030;" d="M446.202,154.41c-0.194-0.001-0.374-0.122-0.443-0.315c-0.086-0.246,0.043-0.516,0.288-0.603
						c0.845-0.298,1.264-0.608,1.398-1.038c0.212-0.671-0.232-1.805-1.286-3.279c-0.152-0.212-0.102-0.507,0.11-0.659
						c0.213-0.152,0.507-0.104,0.66,0.11c1.284,1.799,1.735,3.106,1.417,4.112c-0.296,0.936-1.169,1.356-1.985,1.643
						C446.308,154.4,446.255,154.41,446.202,154.41z"/>
				</g>
				<g>
					<path style="fill:#122030;" d="M457.109,153.568c-0.254-0.001-0.464-0.205-0.47-0.462c-0.034-1.487-0.216-2.975-0.544-4.423
						c-0.058-0.255,0.102-0.508,0.357-0.565c0.256-0.059,0.507,0.103,0.565,0.357c0.34,1.51,0.531,3.061,0.566,4.61
						c0.006,0.26-0.2,0.477-0.462,0.483C457.117,153.568,457.113,153.568,457.109,153.568z"/>
				</g>
				<g>
					<path style="fill:#122030;" d="M457.147,150.992c-0.206-0.001-0.394-0.138-0.453-0.346c-0.07-0.251,0.076-0.512,0.327-0.582
						l2.27-0.635c0.255-0.072,0.513,0.077,0.583,0.327c0.07,0.251-0.076,0.512-0.327,0.583l-2.27,0.635
						C457.233,150.987,457.19,150.992,457.147,150.992z"/>
				</g>
				<g>
					<path style="fill:#122030;" d="M428.076,155.349c-0.218-0.001-0.412-0.154-0.46-0.375c-0.166-0.787-0.73-1.474-1.47-1.792
						c-0.738-0.319-1.626-0.257-2.312,0.165c-0.22,0.136-0.513,0.068-0.649-0.157c-0.136-0.223-0.067-0.513,0.156-0.65
						c0.944-0.577,2.164-0.663,3.179-0.226c1.017,0.437,1.792,1.382,2.02,2.464c0.054,0.255-0.109,0.507-0.364,0.56
						C428.142,155.346,428.109,155.349,428.076,155.349z"/>
				</g>
				<g>
					<path style="fill:#122030;" d="M425.803,155.06c-0.081,0-0.161-0.022-0.235-0.064c-0.225-0.131-0.302-0.42-0.171-0.646
						l0.871-1.497c0.131-0.227,0.422-0.3,0.646-0.171c0.225,0.132,0.302,0.421,0.171,0.646l-0.871,1.497
						C426.126,154.977,425.967,155.061,425.803,155.06z"/>
				</g>
				<g>
					<path style="fill:#122030;" d="M435.878,142.867c-0.159-0.001-0.317-0.07-0.425-0.203c-0.195-0.236-0.16-0.585,0.076-0.78
						c1.651-1.356,4.005-1.741,6.004-0.978c0.286,0.109,0.429,0.43,0.319,0.715c-0.108,0.287-0.428,0.43-0.715,0.32
						c-1.605-0.614-3.576-0.291-4.905,0.799C436.129,142.826,436.003,142.867,435.878,142.867z"/>
				</g>
				<g>
					<path style="fill:#122030;" d="M446.21,141.943c-0.122-0.001-0.244-0.041-0.345-0.123c-0.238-0.192-0.275-0.541-0.083-0.779
						c1.397-1.732,4.111-2.103,5.922-0.808c0.249,0.178,0.307,0.524,0.13,0.773c-0.18,0.251-0.526,0.306-0.773,0.129
						c-1.328-0.948-3.389-0.668-4.415,0.602C446.535,141.874,446.372,141.944,446.21,141.943z"/>
				</g>
				<path style="fill:#122030;" d="M447.55,169.282c-3.165,0.939-9.82-1.239-9.82-1.239s4.433,4.06,10.368,4.1L447.55,169.282z"/>
				<path style="fill:#CE7457;" d="M440.899,154.524c-0.243,1.378-1.557,2.298-2.935,2.055c-1.378-0.243-2.298-1.557-2.055-2.934
					c0.243-1.378,1.557-2.298,2.935-2.055C440.221,151.832,441.141,153.146,440.899,154.524z"/>
				<path style="fill:#CE7457;" d="M456.019,153.376c-0.243,1.378-1.557,2.298-2.934,2.055c-1.378-0.243-2.298-1.557-2.055-2.934
					c0.243-1.378,1.557-2.298,2.935-2.055C455.342,150.684,456.262,151.998,456.019,153.376z"/>
				<path style="fill:#733432;" d="M456.351,147.027c0,0-9.513-5.284-11.631-11.992c0,0-4.159,8.789-10.948,15.704
					c0,0,1.671,6.419,0.572,6.585c-1.099,0.166-3.081-3.258-5.385-6.429c-2.305-3.17-5.343-5.885-5.343-5.885l6.304-14.894
					l4.843-2.434l6.093-1.11l5.77,1.617l4.71,2.238l4.286,6.03l1.584,5.132L456.351,147.027z"/>
				<path style="fill:#122030;" d="M482.007,446.11l0.21,14.367c0,0,18.726,0.435,19.653-0.793c0.927-1.228-8.682-7.129-8.682-7.129
					l-0.192-10.208L482.007,446.11z"/>
				<path style="fill:#122030;" d="M398.823,448.821l0.21,14.367c0,0,18.726,0.435,19.653-0.793
					c0.927-1.228-8.682-7.129-8.682-7.129l-0.192-10.208L398.823,448.821z"/>
				<path style="fill:#422F3A;" d="M477.693,449.876L448.799,275.91l-32.475,175.966l-23.02,0.75
					c1.887-27.694,12.264-155.121,29.966-211.339l42.681-5.889c0,0,18.544,59.291,25.166,103
					c5.983,39.491,6.163,99.604,5.754,110.852L477.693,449.876z"/>
				<polygon style="fill:#122030;" points="465.752,280.493 465.164,262.448 469.938,256.028 468.669,265.643 470.157,290.204 				
					"/>
				<path style="fill:#8D5125;" d="M429.605,234.849c1.2,36.806-18.634,111.975-18.634,111.975l-11.375-1.978l14.484-113.33
					l3.436-48.142c0,0,7.146-4.4,10.207-5.615C427.723,177.758,428.33,195.704,429.605,234.849z"/>
				<path style="fill:#8D5125;" d="M455.955,174.152c0,0,18.823,139.162,25.729,165.541l12.517-2.585l-23.518-104.923l-2.731-24.54
					c0,0,6.784-5.582,7.206-11.884c0.421-6.302-2.115-10.952-6.135-15.144C464.125,175.51,455.955,174.152,455.955,174.152z"/>
				<g>
					<g>
						<path style="fill:#FBF8F0;" d="M440.628,155.112c-1.06-0.006-2.097-0.325-2.993-0.937c-1.188-0.811-1.99-2.035-2.257-3.448
							c-0.553-2.917,1.372-5.74,4.289-6.292c1.414-0.267,2.847,0.032,4.035,0.842c1.189,0.81,1.991,2.035,2.258,3.448l0,0
							c0.268,1.413-0.03,2.847-0.842,4.035c-0.81,1.189-2.035,1.991-3.449,2.258C441.321,155.082,440.973,155.114,440.628,155.112z
							 M440.697,145.783c-0.253-0.001-0.508,0.022-0.762,0.07c-2.136,0.404-3.546,2.471-3.141,4.606
							c0.405,2.135,2.466,3.551,4.606,3.14c1.035-0.196,1.932-0.782,2.525-1.652c0.593-0.87,0.813-1.919,0.617-2.954l0,0
							c-0.197-1.034-0.783-1.931-1.653-2.524C442.232,146.021,441.475,145.787,440.697,145.783z"/>
					</g>
					<g>
						<path style="fill:#FBF8F0;" d="M451.77,152.447c-2.524-0.013-4.775-1.813-5.261-4.384c-0.552-2.917,1.372-5.74,4.289-6.292
							c1.413-0.266,2.847,0.032,4.035,0.842c1.189,0.81,1.99,2.035,2.258,3.448c0.268,1.413-0.03,2.846-0.842,4.035
							c-0.81,1.188-2.035,1.99-3.447,2.258C452.454,152.418,452.11,152.448,451.77,152.447z M451.829,143.118
							c-0.253-0.001-0.508,0.021-0.761,0.07c-2.136,0.404-3.546,2.471-3.142,4.606c0.404,2.136,2.478,3.542,4.607,3.14
							c2.135-0.404,3.545-2.471,3.14-4.606l0,0c-0.197-1.035-0.783-1.931-1.653-2.524
							C453.364,143.357,452.606,143.122,451.829,143.118z"/>
					</g>
					<g>
						<path style="fill:#FBF8F0;" d="M445.222,149.454c-0.103-0.001-0.207-0.023-0.305-0.07c-0.356-0.171-0.51-0.591-0.344-0.95
							c0.042-0.092,0.443-0.906,1.315-1.158c0.396-0.113,1.026-0.145,1.789,0.348c0.334,0.217,0.43,0.663,0.212,0.998
							c-0.216,0.334-0.661,0.43-0.998,0.213c-0.166-0.108-0.405-0.225-0.599-0.174c-0.21,0.057-0.374,0.306-0.415,0.388
							C445.751,149.306,445.491,149.456,445.222,149.454z"/>
					</g>
				</g>
				<path style="fill:#ECB333;" d="M453.423,173.526l2.532,0.627c0,0-13.571,68.733-32.177,111.365l-5.879,33.431l-19.206-1.798
					l8.73-33.547l11.158,0.483c0,0,15.447-35.255,24.197-65.275C451.528,188.791,453.423,173.526,453.423,173.526z"/>
				<path style="fill:#D39260;" d="M461.231,259.117c0,0,8.346,1.833,10.619,4.534c2.273,2.702,1.874,14.433,0.167,14.801
					c-1.707,0.368-7.219,0.704-7.3-0.231c-0.081-0.935,1.45-1.886,1.45-1.886s-3.601-0.231-3.023-1.656
					c0.578-1.425,2.774-1.184,2.774-1.184s-5.202-2.249-5.457-4.859l-3.595-0.961L461.231,259.117z"/>
				<path style="fill:#8D5125;" d="M417.516,183.374c-12.379,9.2-15.105,61.896-12.118,66.8c2.987,4.904,53.13,21.217,53.13,21.217
					l3.75-14.338l-37.481-19.169L417.516,183.374z"/>
				<path style="fill:#8D5125;" d="M473.427,186.696l11.908,42.844l14.683,41.851l-14.715,5.742c0,0-10.073-20.056-15.147-43.697
					c-5.074-23.641-4.993-32.883-4.993-32.883L473.427,186.696z"/>
				<path style="fill:#FFFFFF;" d="M443.391,156.085l6.28,0.238c0,0-0.293,3.128-2.492,3.654
					C444.979,160.504,443.016,158.773,443.391,156.085z"/>
			</g>
			<path style="fill:#ECB333;" d="M517.26,84.281c1.829,0.693,3.769,3.853,3.896,5.804c0.303,4.689,0.746,14.533-0.202,22.39
				c-1.293,10.711-35.828,8.126-37.49,8.126c-1.662,0-5.725,9.648-11.265,12.119c-5.54,2.471,3.853-8.056,4.05-12.857
				c0,0-13.521,0.739-18.574-2.401c-5.052-3.14-5.94-23.171-3.181-31.949C456.932,77.756,502.236,78.584,517.26,84.281z"/>
		</g>
	</g>
</g>
</svg>
