<?xml version="1.0" encoding="utf-8"?>
<!-- Generator: Adobe Illustrator 27.5.0, SVG Export Plug-In . SVG Version: 6.00 Build 0)  -->
<svg version="1.1" xmlns="http://www.w3.org/2000/svg" xmlns:xlink="http://www.w3.org/1999/xlink" x="0px" y="0px"
	 viewBox="0 0 750 500" style="enable-background:new 0 0 750 500;" xml:space="preserve">
<g id="OBJECTS">
	<g>
		<g>
			<g>
				<path style="fill:#422F3A;" d="M289.499,130.572c-10.585-1.042-18.86,3.069-21.213,12.186
					c-2.353,9.117-2.327,6.655-4.347,11.886c-2.327,6.024,1.895,8.55-2.554,13.96l45.429,12.116c0,0-0.635-9.393,0.008-13.755
					c0.643-4.362,6.837-10.369,2.593-15.338c-4.244-4.969-5.028-6.985-6.27-12.078C301.634,133.361,295.128,131.126,289.499,130.572
					z"/>
				<path style="opacity:0.3;fill:#BAAD93;" d="M251.367,452.841c0,3.028,20.619,5.483,46.054,5.483s46.055-2.455,46.055-5.483
					c0-3.028-20.619-5.483-46.055-5.483S251.367,449.813,251.367,452.841z"/>
				<g>
					<g>
						<path style="fill:#D39260;" d="M215.547,170.677l-1.499-6.52c0,0-13.627-5.5-13.6-7.067c0.027-1.566,7.613,1.63,7.613,1.63
							s-10.936-5.762-10.726-6.654c0.21-0.892,9.289,2.827,9.289,2.827s-7.643-5.12-7.096-6.097
							c0.546-0.977,8.118,3.177,8.118,3.177s-5.352-5.528-4.656-6.47c0.696-0.942,12.251,7.693,12.251,7.693s0.827-6.191,2.21-6.023
							c1.383,0.168,4.511,12.846,4.511,12.846l2.116,9.999L215.547,170.677z"/>
						<path style="fill:#ECB333;" d="M287.739,174.789c-0.162,0.004-0.775,0.03-1.742,0.107c-1.269,0.074-3.117,0.237-5.282,0.446
							l-0.021,0.011c-4.398,0.467-10.038,1.266-14.394,2.583c-2.181,0.667-26.402,19.308-26.402,19.308l-14.541-32.859
							l-15.084,3.973l13.585,38.938c2.913,8.348,12.21,12.57,20.413,9.27l16.505-6.641l10.02-15.993l16.981-19.149
							C287.777,174.783,287.761,174.778,287.739,174.789z"/>
						<path style="fill:#122030;" d="M260.776,209.925c0,0,1.859-2.968,3.976-6.346l-3.087-9.719l-13.67,21.207L260.776,209.925z"/>
						<path style="fill:#ECB333;" d="M277.351,175.859l-2.691,0.909c-3.979,1.344-7.319,4.125-9.33,7.811
							c-3.347,6.134-8.019,15.771-8.144,21.974c-0.095,4.73,4.537,13.001,4.537,13.001l-2.651,25.257h41.206l8.876-62.332
							c0,0-9.726-6.508-19.871-6.8C284.52,175.541,277.351,175.859,277.351,175.859z"/>
						<path style="fill:#9E5D2A;" d="M281.927,172.135c0,0-4.305,0.935-5.288,2.663c-0.983,1.728-3.155,10.595-0.922,10.901
							c1.393,0.191,8.191-5.815,8.191-5.815s3.212,7.789,6.127,7.789c1.603,0,8.22-12.029,3.464-14.619
							C290.208,171.262,281.927,172.135,281.927,172.135z"/>
						<g>
							<path style="fill:#D39260;" d="M291.705,174.296l3.466-15.273c0,0,5.944,2.352,6.644-2.56
								c0.623-4.376-4.145-4.93-6.538-2.969c0,0,4.835-15.161-8.393-16.986c-13.228-1.826-14.185,16.362-14.437,20.763
								c-0.443,7.75,4.952,11.726,8.958,12.295l-0.526,4.74c0,0-0.509,4.147,3.394,4.482
								C289.475,179.234,291.705,174.296,291.705,174.296z"/>
							<path style="fill:#F9FBFF;" d="M294.658,161.893c0,0-4.17,1.544-5.525-1.967c-1.427-3.7,1.356-6.748,6.143-6.432l0.653-1.794
								c0,0-5.388,2.261-8.988,1.418c-3.599-0.843-8.251-3.968-14.091-1.969c0,0-4.679,12.763,1.817,16.16
								c6.496,3.396,19.581-3.784,19.581-3.784L294.658,161.893z"/>
						</g>
						<g>
							<path style="fill:#122030;" d="M280.702,147.355c0.111,0,0.223-0.041,0.31-0.124c0.181-0.171,0.189-0.458,0.018-0.639
								c-1.246-1.313-3.465-1.439-4.848-0.274c-0.189,0.16-0.215,0.446-0.055,0.636c0.163,0.192,0.447,0.214,0.638,0.054
								c1.009-0.852,2.696-0.756,3.608,0.205C280.463,147.308,280.583,147.355,280.702,147.355z"/>
						</g>
						<path style="fill:#122030;" d="M290.092,168.887c0,0-5.822,1.432-8.837,0.791l-0.249,2.244
							C286.048,171.233,290.092,168.887,290.092,168.887z"/>
						<path style="fill:#422F3A;" d="M295.277,153.494c-0.858,0.871-1.786,7.364-2.404,6.746
							c-0.618-0.618,0.526-11.903,0.526-11.903s-5.324-4.025-5.785-8.273c0,0-5.035,10.842-15.192,9.712
							c0,0,2.673-17.516,15.968-14.888c13.294,2.628,11.365,14.377,11.365,14.377L295.277,153.494z"/>
					</g>
					<path style="fill:#122030;" d="M278.25,437.83l2.661,13.765c0,0-17.744,1.001-18.871-0.146
						c-1.127-1.147,6.847-7.098,6.847-7.098l-1.85-9.781L278.25,437.83z"/>
					<path style="fill:#122030;" d="M329.364,437.83l2.661,13.765c0,0-17.744,1.001-18.871-0.146
						c-1.127-1.147,6.847-7.098,6.847-7.098l-1.85-9.781L329.364,437.83z"/>
					<path style="fill:#8D5125;" d="M259.072,244.811c-8.675,67.721,2.762,195.673,2.762,195.673h22.352l-3.224-164.241
						l28.954,167.042h23.66l-23.92-169.486c0,0,1.353-19.473-9.378-28.988H259.072z"/>
				</g>
				<g>
					<path style="fill:#9E5D2A;" d="M250.072,234.789c-1.459-2.199-2.636-5.234-2.862-8.245c-1.309-0.542-2.434-1.517-3.21-2.858
						c-1.287-2.223-1.328-4.524-0.972-6.402c-1.449-0.65-2.642-1.753-3.242-3.163c-0.884-2.076-0.441-4.32,0.086-5.836
						c0.422-1.215,1.014-2.359,1.586-3.465c0.272-0.525,0.544-1.05,0.798-1.583c0.593-1.247,1.367-3.12,1.232-4.994
						c-0.107-1.471-0.925-3.218-2.51-3.805l0.426-1.153c1.817,0.672,3.147,2.628,3.31,4.869c0.157,2.165-0.694,4.24-1.348,5.612
						c-0.259,0.545-0.537,1.083-0.815,1.62c-0.578,1.117-1.124,2.172-1.518,3.304c-0.456,1.312-0.846,3.235-0.116,4.951
						c0.452,1.06,1.328,1.905,2.405,2.437c0.044-0.15,0.091-0.295,0.137-0.435c0.426-1.268,0.975-2.23,1.678-2.942
						c0.925-0.936,2.162-1.424,3.312-1.312c1.37,0.137,2.541,1.192,2.725,2.454c0.133,0.911-0.223,1.889-0.953,2.615
						c-0.558,0.557-1.329,0.971-2.29,1.233c-1.239,0.336-2.534,0.317-3.728,0.007c-0.274,1.611-0.205,3.536,0.86,5.374
						c0.53,0.916,1.26,1.622,2.112,2.088c0.04-1.441,0.325-2.844,0.932-4.116c0.647-1.355,1.722-2.398,2.948-2.862
						c1.447-0.546,3.11-0.252,4.138,0.735c1.249,1.198,1.463,3.352,0.498,5.011c-0.779,1.339-2.22,2.352-4.059,2.852
						c-1.083,0.295-2.159,0.333-3.166,0.142c0.287,2.623,1.343,5.251,2.629,7.19L250.072,234.789z M248.39,225.636
						c0.915,0.235,1.913,0.229,2.92-0.045c0.883-0.241,2.488-0.857,3.319-2.284c0.593-1.019,0.648-2.609-0.286-3.505
						c-0.682-0.655-1.855-0.85-2.852-0.472c-0.933,0.352-1.761,1.169-2.273,2.241C248.624,222.814,248.378,224.207,248.39,225.636z
						 M244.478,216.507c0.999,0.261,2.087,0.278,3.132-0.005c0.752-0.205,1.339-0.513,1.744-0.917
						c0.448-0.446,0.68-1.046,0.604-1.566c-0.103-0.708-0.82-1.327-1.631-1.408c-0.775-0.08-1.648,0.277-2.315,0.953
						c-0.568,0.575-1.021,1.382-1.386,2.469C244.575,216.184,244.525,216.343,244.478,216.507z"/>
				</g>
				<g>
					<path style="fill:#D39260;" d="M264.693,242.567c0,0-2.502-4.399-3.485-4.422c-0.983-0.023-8.061,4.608-7.513,5.693
						c0.548,1.085,7.411,0.281,7.411,0.281l1.06,9.442"/>
					<polygon style="fill:#ECB67B;" points="263.751,259.798 251.324,262.304 242.555,232.628 260.713,229.18 					"/>
				</g>
				<path style="fill:#D39260;" d="M268.513,241.51c0,0-21.637-0.12-23.623,1.255c-1.987,1.376,1.329,12.838,3.477,13.449
					c2.148,0.611,10.673,1.484,13.965,0.459c1.963-0.611,8.446-5.892,8.446-5.892L268.513,241.51z"/>
				<polygon style="fill:#122030;" points="300.273,206.752 302.187,231.408 304.14,217.691 				"/>
				<path style="fill:#ECB333;" d="M267.622,240.569l41.532-1.994l-8.882-31.823l8.882-24.273
					c6.487,4.355,13.975,36.104,18.128,56.117c1.738,8.377-4.786,16.183-13.339,15.969l-43.166-1.08L267.622,240.569z"/>
			</g>
			<path style="fill:#ECB333;" d="M244.252,145.746c9.512-4.76,15.932-13.742,15.932-24.047c0-15.277-14.098-27.662-31.488-27.662
				c-17.39,0-31.488,12.384-31.488,27.662c0,15.277,14.098,27.662,31.488,27.662c1.567,0,3.106-0.104,4.612-0.298
				c4.22,4.395,10.666,9.37,19.919,12.359C253.227,161.423,246.446,154.769,244.252,145.746z"/>
		</g>
		<g>
			<g>
				<path style="opacity:0.3;fill:#BAAD93;" d="M64.628,451.225c0,3.028,19.771,5.483,44.16,5.483c24.389,0,44.16-2.455,44.16-5.483
					c0-3.028-19.771-5.483-44.16-5.483C84.399,445.742,64.628,448.197,64.628,451.225z"/>
				<path style="fill:#122030;" d="M126.764,437.056l-2.661,13.765c0,0,17.744,1.001,18.871-0.146
					c1.127-1.147-6.847-7.098-6.847-7.098l1.85-9.781L126.764,437.056z"/>
				<path style="fill:#122030;" d="M79.815,437.056l-2.661,13.765c0,0,17.744,1.001,18.871-0.146
					c1.127-1.147-6.847-7.098-6.847-7.098l1.85-9.781L79.815,437.056z"/>
				<path style="fill:#D39260;" d="M179.066,164.176c0.42-0.39,0.877-0.806,1.383-1.257c0.721-0.642,8.744-7.27,9.7-6.147
					c0.867,0.55-0.933,3.333-0.933,3.333s2.48,0.758,0.809,4.789c-0.125,0.301-0.27,0.561-0.428,0.784
					c-0.368,0.753-0.858,1.285-0.858,1.285s1.107,0.094,1.677,0.78c0.569,0.687-1.16,2.56-1.16,2.56l-7.001,8.165l-9.551,45.599
					c-1.005,4.799-4.606,8.635-9.332,9.943l0,0c-5.715,1.581-11.78-0.874-14.787-5.984l-3.611-6.138l14.812-12.198
					c0,0,14.184-44.218,15.281-45.389L179.066,164.176z"/>
				<polygon style="fill:#122030;" points="159.785,209.689 146.704,224.828 148.077,227.161 				"/>
				<path style="fill:#ECB333;" d="M159.785,209.689c-2.774-12.76-8.343-30.714-11.647-33.158l-7.121,28.072l4.712,21.506
					C145.73,226.109,155.91,215.437,159.785,209.689z"/>
				<g>
					<path style="fill:#ECB333;" d="M148.141,176.529l-2.402,19.731c0,0-0.147,4.145-0.349,10.303
						c-0.434,13.487-1.139,36.643-1.139,47.101c0,7.181-5.028,7.871-5.028,7.871H87.468c0,0,0.194-2.58,0.542-7.352
						c0.775-10.768,1.944-32.374,2.44-41.654c0.147-2.742,0.232-4.408,0.232-4.408l-3.602-29.322
						c1.681-1.82,7.282-4.725,13.433-7.166c0.008,0,0.008-0.008,0.015-0.008c1.333-0.535,2.688-1.038,4.044-1.503h0.008
						c4.346-1.503,8.607-2.603,11.636-2.781c7.282-0.411,13.557,0.744,18.561,2.355c1.596,0.519,3.068,1.085,4.393,1.658
						C144.933,173.833,148.141,176.529,148.141,176.529z"/>
					<g>
						<path style="fill:#122030;" d="M129.921,134.536c0,0,2.693,5.293,2.094,10.622s-5.283-10.675-5.283-10.675L129.921,134.536z"
							/>
						<g>
							<path style="fill:#D39260;" d="M114.802,171.011l-4.559-15.343c0,0-5.904,2.797-6.947-2.165
								c-0.929-4.421,3.896-5.305,6.468-3.466c0,0-5.948-15.136,7.419-17.885c13.367-2.749,15.563,15.734,16.115,20.205
								c0.972,7.874-4.264,12.29-8.31,13.139l0.855,4.799c0,0,0.797,4.195-3.161,4.798
								C117.409,175.897,114.802,171.011,114.802,171.011z"/>
						</g>
						<g>
							<path style="fill:#D39260;" d="M131.506,147.836c0,0,5.222-4.321,6.811,0.846c1.747,5.681-6.407,4.848-6.407,4.848
								L131.506,147.836z"/>
						</g>
						<path style="fill:#122030;" d="M124.989,165.496c-2.636,0.745-8.134-1.135-8.134-1.135s3.646,3.485,8.57,3.584
							L124.989,165.496z"/>
						<path style="fill:#F9FBFF;" d="M110.925,158.225c0,0,6.614,2.054,6.085-1.703c-0.529-3.757-2.736-7.043-7.533-6.665
							l-0.279-1.202c0,0,5.971,1.888,9.587,1.022c3.616-0.866,8.322-3.94,14.137-2.111c0,0,4.485,12.184-2.071,15.547
							c-6.556,3.363-19.543-3.329-19.543-3.329L110.925,158.225z"/>
					</g>
				</g>
				<polygon style="fill:#422F3A;" points="87.468,261.537 77.154,438.362 100.993,438.362 114.617,291.73 123.085,438.362 
					143.938,438.362 143.938,261.537 				"/>
				<g>
					<path style="fill:#C1752D;" d="M151.35,252.073c0,0.744-0.603,1.347-1.347,1.347c-0.744,0-1.347-0.603-1.347-1.347
						c0-0.744,0.603-1.347,1.347-1.347C150.747,250.726,151.35,251.329,151.35,252.073z"/>
					<path style="fill:#733432;" d="M150.013,262.237c0,0,12.02-5.378-0.019-10.184c-12.04-4.807-7.029,7.37-7.029,7.37
						l-11.861,17.123l15.715,6.274L150.013,262.237z"/>
				</g>
				<path style="fill:#D39260;" d="M137.208,257.299c0,0,19.249,5.584,19.249,6.801c0,1.217-2.704,2.298-3.109,3.109
					c-0.405,0.811,2.028,2.568,0.271,3.92c-1.758,1.352-1.456,5.327-4.16,6.273c-2.704,0.946-6.98-1.021-10.754-3.548
					c-1.815-1.215-7.309-4.467-7.309-4.467L137.208,257.299z"/>
				<path style="fill:#D39260;" d="M96.723,226.109l40.485,31.19l-5.814,12.089l-45.648-26.121
					c-5.176-2.962-8.243-8.587-7.928-14.543l0.596-11.268L96.723,226.109z"/>
				<path style="fill:#ECB333;" d="M96.723,226.109l1.568-28.181c0,0-6.747-22.419-11.21-19.131
					c-4.818,3.55-11.996,24.604-13.105,44.392L96.723,226.109z"/>
				<path style="fill:#422F3A;" d="M109.296,150.048c1.38,0.968,2.607,3.524,2.607,3.524l0.995-0.214l-0.689-5.247
					c0,0,2.66-2.772,0.842-6.949c2.94,0.206,4.707-0.141,7.641-0.405c3.787-0.341,9.771-1.191,9.763-6.191
					c-0.001-0.804-0.214-1.648-0.783-2.217c-0.814-0.812-2.092-0.855-3.179-1.23c-2.337-0.805-4.061-3.278-6.533-3.299
					c-1.815-0.016-3.346,1.33-5.107,1.77c-2.294,0.573-4.882-0.411-7.001,0.637c-1.944,0.961-2.77,3.675-1.69,5.556
					c-1.469,0.125-3.009,1.166-3.691,2.472c-0.682,1.307-0.647,2.961,0.09,4.237c0.485,0.84,1.273,1.597,1.275,2.567
					c0.001,0.525-0.238,1.03-0.227,1.555c0.014,0.612,0.374,1.175,0.839,1.572c0.465,0.398,1.078,0.772,1.635,1.026
					C106.082,149.214,107.761,148.971,109.296,150.048z"/>
				<path style="fill:#D39260;" d="M175.066,164.3c0,0,1.744-5.432,6.675-4.028c4.931,1.403,5.892,1.59,5.621,3.326
					c-0.271,1.735-9.959,1.88-9.959,1.88L175.066,164.3z"/>
			</g>
			<path style="fill:#8D5125;" d="M175.194,37.108c-19.508,0-35.323,13.893-35.323,31.03c0,11.56,7.201,21.636,17.872,26.975
				c-2.462,10.122-10.068,17.585-10.068,17.585c10.38-3.354,17.611-8.935,22.345-13.865c1.689,0.218,3.416,0.335,5.174,0.335
				c19.508,0,35.323-13.893,35.323-31.031S194.702,37.108,175.194,37.108z"/>
		</g>
	</g>
	<g>
		<path style="fill:#8D5125;" d="M573.195,147.941c10.671-5.339,17.872-15.415,17.872-26.975c0-17.138-15.815-31.031-35.323-31.031
			c-19.508,0-35.323,13.893-35.323,31.031c0,17.138,15.815,31.03,35.323,31.03c1.758,0,3.485-0.117,5.174-0.335
			c4.734,4.93,11.965,10.511,22.345,13.865C583.263,165.526,575.657,158.062,573.195,147.941z"/>
		<path style="fill:#ECB333;" d="M509.706,42.006c-15.624,0-28.29,11.127-28.29,24.852c0,9.258,5.767,17.328,14.313,21.604
			c-1.971,8.106-8.063,14.084-8.063,14.084c8.313-2.686,14.104-7.156,17.896-11.104c1.353,0.174,2.736,0.268,4.144,0.268
			c15.624,0,28.29-11.127,28.29-24.852S525.33,42.006,509.706,42.006z"/>
		<g>
			<g>
				<path style="fill:#BF795E;" d="M489.445,417.898l-0.813,18.296l9.758,10.029c0,0,10.029,3.253,10.842,7.454
					c0,0-5.15,1.626-11.926,0c-5.107-1.226-12.984-1.989-18.122-3.045c-2.507-0.515-4.137-2.985-3.605-5.49
					c0.48-2.261,1.514-5.218,3.702-8.406l-2.575-18.838H489.445z"/>
				<path style="fill:#BF795E;" d="M431.605,414.863l-6.809,22.746c0,0,3.714,9.749,0,12.379c-3.714,2.63-27.388,7.892-28.936,6.035
					c-1.547-1.857,8.356-9.661,8.356-9.661l9.553-10.724l2.362-20.774H431.605z"/>
				<path style="fill:#8D5125;" d="M495.778,244.954c0,0,1.838,50.031,0,101.081c-1.5,41.667-5.02,74.718-5.02,74.718h-20.369
					c0,0-3.845-53.524,0-72.563l-4.476-67.681h-2.456l-30.802,140.243h-22.362c0,0,2.155-46.699,12.932-75.077
					c0,0,3.233-54.242,15.617-100.722H495.778z"/>
				<path style="fill:#733432;" d="M496.149,258.167c-0.191-8.306-0.371-13.213-0.371-13.213h-56.937
					c-1.802,6.765-3.41,13.694-4.843,20.596C466.067,283.889,487.949,266.767,496.149,258.167z"/>
				
					<line style="fill:none;stroke:#422F3A;stroke-width:0.4911;stroke-miterlimit:10;" x1="469.472" y1="250.759" x2="464.996" y2="280.511"/>
				<path style="fill:none;stroke:#422F3A;stroke-width:0.4911;stroke-miterlimit:10;" d="M475.781,253.908
					c0,0-0.989,17.66-9.33,16.937"/>
				<path style="fill:#BF795E;" d="M437.598,250.759l4.422,3.593c0,0-0.691,6.495-7.186,11.194l-2.179-7.393L437.598,250.759z"/>
				<path style="fill:#422F3A;" d="M458.284,126.247c0,0-1.656-2.17-4.168-6.281c-2.513-4.111-0.343-10.05,4.797-10.507
					c1.542-8.623,9.65-7.538,12.848-5.425c3.198,2.113,3.741,4.809,10.335,5.539c4.812,0.532,5.653,11.249-5.253,10.393
					l-14.219,8.737L458.284,126.247z"/>
				<linearGradient id="SVGID_1_" gradientUnits="userSpaceOnUse" x1="436.0469" y1="255.2843" x2="497.616" y2="255.2843">
					<stop  offset="0" style="stop-color:#EBF5FF"/>
					<stop  offset="0.98" style="stop-color:#FFFFFF"/>
				</linearGradient>
				<path style="fill:url(#SVGID_1_);" d="M437.76,244.954l-1.713,6.91l5.282-2.626c0,0,10.227,17.605,33.443,16.307
					c12.004-0.671,22.844-15.737,22.844-15.737l-1.838-4.854H437.76z"/>
				<path style="fill:#BF795E;" d="M538.247,192.482c0,0,2.119-4.526,5.585-7.608c3.467-3.081,8.474-4.43,9.148-3.467
					c0.674,0.963-5.393,4.225-5.393,4.225l6.356,0.59c0,0,7.511-3.563,7.511-2.215s-2.696,5.863-4.43,7.602
					c-1.733,1.739-10.592,3.28-10.592,3.28l-2.601,4.719L538.247,192.482z"/>
				<path style="fill:#422F3A;" d="M466.744,143.011c7.109-0.102,11.968,3.882,11.968,3.882l0.587,6.299l10.794,3.958
					c6.368,2.335,11.462,7.239,14.037,13.514l15.661,38.16l18.038-18.315c0,0,3.33,6.149,8.603,7.376c0,0-0.833,9.434-4.995,15.182
					c-4.163,5.748-8.268,7.752-9.713,12.686c-1.591,5.432-7.654,14.85-16.651,12.342c-11.228-3.13-21.646-25.027-21.646-25.027
					l0.833,27.116c0,0,7.493,6.105-1.388,8.048c-8.88,1.943-40.516,1.388-51.617,0c-6.66-0.832-4.44-10.136-4.44-10.136
					l-4.162-38.705l-12.137,23.769l18.242,27.571c0,0-1.159,7.215-6.431,9.435c0,0-1.931-2.244-6.088-4.162
					c-4.157-1.918-6.102-5.088-8.259-7.806c-2.157-2.718-5.6-3.273-9.597-5.671c-3.997-2.398-5.07-8.267-7.834-10.232
					c-3.757-2.671-9.478-10.103-3.837-19.984c2.354-4.124,17.792-30.055,26.541-44.736c3.882-6.514,10.007-11.384,17.228-13.7
					l12.587-4.038l1.082-5.794C454.151,144.04,459.634,143.113,466.744,143.011z"/>
				<path style="fill:#122030;" d="M519.792,208.824l-9.616,9.893C510.176,218.717,511.854,210.305,519.792,208.824z"/>
				<path style="fill:#122030;" d="M493.429,185.633v27.434c0,0,3.386,7.11,8.374,13.807L493.429,185.633z"/>
				<path style="fill:#122030;" d="M432.655,199.389l6.698-13.923c0,0,1.126,23.525-4.739,32.14L432.655,199.389z"/>
				<path style="fill:#122030;" d="M420.517,223.157l-6.34-10.712C414.178,212.445,420.982,212.265,420.517,223.157z"/>
				<path style="fill:#C9D4E3;" d="M478.713,146.893c0,0-4.859-3.983-11.968-3.882c-7.11,0.102-12.593,1.029-12.593,1.029
					l-1.082,5.794c0,0,12.675,11.383,26.231,3.358L478.713,146.893z"/>
				<path style="fill:#BF795E;" d="M479.298,127.755l-1.789-1.196v-8.28c0-0.488-0.389-0.867-0.876-0.894
					c-6.078-0.343-13.684-5.075-14.708-2.107c-1.074,3.113-1.074,6.614-1.342,8.949c-3.691-2.335-6.226,0-4.957,4.466
					c1.03,3.623,4.751,2.421,4.751,2.421c-0.184,3.824-2.46,14.805-2.46,14.805c3.497,2.216,7.153,2.255,10.052,2.541l1.021,5.892
					c0,0,2.145-2.806,2.577-5.81c2.048-0.115,3.331-0.46,3.331-0.46l-0.688-9.034C478.473,137.985,479.298,127.755,479.298,127.755z
					"/>
				
					<linearGradient id="SVGID_00000031197303641640371600000008822839044077232017_" gradientUnits="userSpaceOnUse" x1="471.5676" y1="152.7538" x2="479.3002" y2="152.7538">
					<stop  offset="0" style="stop-color:#EBF5FF"/>
					<stop  offset="0.98" style="stop-color:#FFFFFF"/>
				</linearGradient>
				<path style="fill:url(#SVGID_00000031197303641640371600000008822839044077232017_);" d="M471.568,148.542l0.782,10.073
					c0,0,4.385-1.743,6.951-5.422l-0.587-6.299C478.713,146.893,473.396,148.413,471.568,148.542z"/>
				
					<linearGradient id="SVGID_00000147215554532650725650000018181659597253356675_" gradientUnits="userSpaceOnUse" x1="452.1731" y1="151.3273" x2="467.9696" y2="151.3273">
					<stop  offset="0" style="stop-color:#EBF5FF"/>
					<stop  offset="0.98" style="stop-color:#FFFFFF"/>
				</linearGradient>
				<path style="fill:url(#SVGID_00000147215554532650725650000018181659597253356675_);" d="M454.151,144.04
					c0,0,7.529,4.428,13.819,4.419l-2.345,10.155c0,0-10.073-4.182-13.452-9.082L454.151,144.04z"/>
				<g>
					<path style="fill:#733432;" d="M469.868,412.451c0.291,5.104,0.52,8.303,0.52,8.303h20.369c0,0,0.319-3,0.804-8.303H469.868z"
						/>
					<path style="fill:#733432;" d="M434.478,412.451h-23.637c-0.403,5.153-0.549,8.303-0.549,8.303h22.362L434.478,412.451z"/>
				</g>
				
					<line style="fill:none;stroke:#422F3A;stroke-width:0.4911;stroke-miterlimit:10;" x1="454.531" y1="276.277" x2="479.013" y2="274.645"/>
				
					<line style="fill:none;stroke:#422F3A;stroke-width:0.4911;stroke-miterlimit:10;" x1="471.98" y1="277.746" x2="458.938" y2="277.746"/>
				<path style="fill:#915C49;" d="M462.102,133.836c0,0,3.549,7.996,12.411,9.175l-0.315-4.587L462.102,133.836z"/>
				<path style="fill:#F9FBFF;" d="M460.378,131.113c0,0,3.77,2.605,4.342-0.526c0.573-3.131-0.348-5.367-4.137-6.36l0.099-1.031
					c0,0,4.181,2.139,7.189,2.425c3.008,0.286,7.43-0.889,11.427,2.134c0,0,0.272,10.902-5.649,11.809
					c-5.921,0.907-13.384-7.106-13.384-7.106L460.378,131.113z"/>
				<path style="fill:#422F3A;" d="M479.281,436.737c-2.188,3.188-3.222,6.145-3.702,8.406c-0.531,2.504,1.098,4.974,3.605,5.49
					c5.138,1.056,13.015,1.82,18.122,3.045c6.776,1.626,11.926,0,11.926,0c-0.813-4.201-10.842-7.454-10.842-7.454l-9.758-10.029
					l-5.063,3.431L479.281,436.737z"/>
				<path style="fill:#422F3A;" d="M395.861,456.023c1.547,1.857,25.222-3.404,28.936-6.035c3.714-2.631,0-12.379,0-12.379
					l-4.632,2.244c-1.442-3.831-6.395-4.216-6.395-4.216l-9.553,10.724C404.217,446.362,394.314,454.166,395.861,456.023z"/>
			</g>
			<path style="opacity:0.3;fill:#BAAD93;" d="M380.393,452.841c0,3.028,30.597,5.483,68.34,5.483s68.34-2.455,68.34-5.483
				c0-3.028-30.597-5.483-68.34-5.483S380.393,449.813,380.393,452.841z"/>
		</g>
		<g>
			<g>
				<g>
					<path style="fill:none;stroke:#ECB333;stroke-width:0.75;stroke-miterlimit:10;" d="M546.099,300.432h31.245
						c0,0-4.901-17.196-15.623-17.196C551.001,283.236,546.099,300.432,546.099,300.432z"/>
					<polygon style="fill:#C27735;" points="591.472,361.667 531.972,361.667 535.674,297.844 587.77,297.844 					"/>
				</g>
				<path style="fill:#E8A1A1;" d="M580.009,416.385c0,0,1.963,25.97,0,29.594c-1.963,3.624-6.341,6.191-6.341,6.191
					s-4.25,0.496-6.928,1.973c-1.345,0.742-0.891,2.774,0.643,2.842c5.088,0.224,15.972,0.598,22.337,0.057
					c1.021-0.087,1.766-1.001,1.624-2.015c-0.253-1.81-0.953-4.729-2.885-7.659c0,0,3.932-17.393,4.536-29.774L580.009,416.385z"/>
				<path style="fill:#E8A1A1;" d="M655.668,419.034c0,0,14.454,24.364,12.491,28.206c-1.963,3.842-6.342,6.895-6.342,6.895
					s-4.25,0.968-6.928,2.742c-1.345,0.891-0.891,2.873,0.643,2.77c5.088-0.342,15.972-1.176,22.337-2.425
					c1.021-0.2,1.766-1.197,1.624-2.196c-0.253-1.781-0.952-4.623-2.885-7.338c0,0-1.522-19.684-4.114-29.317L655.668,419.034z"/>
				<path style="fill:#422F3A;" d="M667.53,448.316c-2.137,3.319-5.713,5.82-5.713,5.82s-4.25,0.968-6.928,2.743
					c-1.345,0.891-0.891,2.873,0.643,2.77c5.088-0.342,15.972-1.176,22.337-2.425c1.021-0.2,1.766-1.197,1.624-2.196
					c-0.253-1.781-0.952-4.623-2.885-7.338l-3.06,3.135C672.849,449.597,669.603,448.746,667.53,448.316z"/>
				<path style="fill:#422F3A;" d="M579.552,446.737c-2.111,3.218-5.884,5.433-5.884,5.433s-4.25,0.496-6.928,1.973
					c-1.345,0.742-0.891,2.774,0.643,2.842c5.088,0.224,15.972,0.598,22.337,0.057c1.021-0.087,1.766-1.001,1.624-2.015
					c-0.253-1.81-0.953-4.729-2.885-7.659l-3.702,2.467C583.505,448.234,581.307,447.279,579.552,446.737z"/>
				<path style="fill:#E8A1A1;" d="M578.919,193.97l-4.057,32.155l-15.514,50.802c0,0-6.246,10.618-2.29,10.41
					c2.15-0.113,4.361-0.102,5.932-0.069c1.578,0.034,2.911-1.184,2.991-2.76c0.07-1.377-0.174-3.269-1.219-5.707
					c0,0,22.07-35.968,26.026-44.712c3.956-8.745,5.83-40.567,5.83-40.567L578.919,193.97z"/>
				<path style="fill:#E38080;" d="M578.919,193.97l-3.48,27.582c2.214-8.886,14.797-2.597,13.991,15.276
					c0.56-1.074,1.026-2.008,1.357-2.739c3.956-8.745,5.83-40.567,5.83-40.567L578.919,193.97z"/>
				<path style="fill:#8D5125;" d="M589.329,224.251l-0.833,8.953c0,0-8.328,19.988-10.618,55.799
					c-2.29,35.811,0.171,129.911,0.171,129.911s20.858,5.423,37.931,0.218c0,0-0.208-37.685-6.454-62.67
					c0,0,1.249-52.736,0.416-64.886c0,0,15.824,101.322,23.944,127.348c0,0,16.968,2.915,39.663,0c0,0-8.849-50.177-20.508-75.162
					c0,0-1.521-79.534-19.707-108.683l-1.42-10.827H589.329z"/>
				<path style="fill:none;stroke:#733432;stroke-width:0.4828;stroke-miterlimit:10;" d="M589.43,233.618
					c0,0,13.915,7.119,42.262,1.757"/>
				<path style="fill:none;stroke:#733432;stroke-width:0.4828;stroke-miterlimit:10;" d="M606.61,269.64
					c0,0-2.498-25.818-0.833-42.89"/>
				<path style="fill:none;stroke:#733432;stroke-width:0.4828;stroke-miterlimit:10;" d="M600.936,226.749
					c0,0-5.341,25.907,4.669,28.569"/>
				<path style="fill:none;stroke:#733432;stroke-width:0.4828;stroke-miterlimit:10;" d="M624.238,226.749
					c0,0-3.741,17.282,14.587,19.806"/>
				<path style="fill:#422F3A;" d="M638.804,182.089c0.469-3.435-8.667-13.663-11.321-17.177c-2.655-3.513-1.483-7.73-1.171-14.288
					c0.312-6.559-3.904-14.075-11.477-14.231c-2.655-2.03-9.447-2.321-13.351,1.739c-3.919,4.076-4.529,7.964-1.718,8.666
					c0,0,4.555,19.363-0.651,27.796S638.804,182.089,638.804,182.089z"/>
				<path style="fill:#ECB333;" d="M621.549,170.143c2.82,1.425,7.909,4.127,12.329,6.492c5.313,2.842,9.263,7.694,10.963,13.475
					l2.889,9.821l-15.172,3.101l0.775,23.477c0,0-25.607,6.871-46.844,0c-3.765-1.218,1.44-6.534,2.104-7.752
					c0.664-1.218,1.218-2.99,0.443-6.423s-2.879-7.465-3.322-12.481h-10.853l2.262-7.026c3.359-10.432,11.724-18.486,22.276-21.448
					l3.857-1.082L621.549,170.143z"/>
				<path style="fill:none;stroke:#F8E980;stroke-width:0.4828;stroke-miterlimit:10;" d="M621.549,170.143
					c0,0,0.88,7.678-3.126,11.009c-4.005,3.331-13.895,6.48-13.895,6.48s-3.963-3.901-5.788-8.378
					c-1.825-4.476,4.516-8.958,4.516-8.958L621.549,170.143z"/>
				<path style="fill:none;stroke:#F8E980;stroke-width:0.4828;stroke-miterlimit:10;" d="M604.528,187.633
					c0,0-1.77,4.034-2.499,12.675"/>
				<path style="fill:#122030;" d="M585.714,199.853c-0.341-5.584,3.615-12.663,3.615-12.663l-11.764,12.663H585.714z"/>
				<path style="fill:#122030;" d="M623.683,191.458c0,0-3.123,9.682-1.561,16.552c1.313,5.776,1.96,16.551-4.977,21.139
					c9.436-0.833,16.188-2.64,16.188-2.64l-0.775-23.477l-5.962,1.324L623.683,191.458z"/>
				<path style="fill:#7D4030;" d="M577.486,392.673c0.283,15.544,0.563,26.241,0.563,26.241s20.858,5.423,37.931,0.217
					c0,0-0.208-37.685-6.454-62.67c0,0,1.079-45.566,0.562-61.743l-0.146-3.143l-3.331-21.936
					C606.61,269.64,594.019,359.857,577.486,392.673z"/>
				<g>
					<path style="fill:#E8A1A1;" d="M630.287,281.055c7.088-13.172,14.095-28.47,17.588-38.993
						c2.427-7.311,2.893-15.129,1.387-22.685l-3.785-18.985l-18.881,3.964l5.52,26.765c-5.309,9.161-7.391,48.928-7.391,48.928
						s-3.814,3.009-5.302,8.256c0,0,0.647,0.332,1.617,0l-0.647,2.061c0,0-2.587,3.557-1.423,3.621s6.273-0.841,8.407-4.527
						C629.511,285.775,630.287,281.055,630.287,281.055z"/>
				</g>
				<path style="fill:#E8A1A1;" d="M612.336,141.073c0,0-2.186,8.224,3.852,11.347c0,0,0.521-2.577,2.707-2.342
					c2.186,0.234,0.547,7.339-2.03,6.09c0,0,0.703,10.228,1.093,11.399c0.39,1.171,3.591,2.577,3.591,2.577
					s-13.585,11.321-17.021,17.489c-2.499-9.994-1.272-17.336-1.272-17.336s2.313-0.284,2.781-2.105
					c0.564-2.194,0.364-4.841,0.364-4.841s-4.612,1.446-6.727-1.324c-3.184-4.169-0.299-9.138-0.221-10.622
					c0.078-1.483,0.39-3.669,0.312-4.607c0,0,7.99,1.301,9.552,0C610.878,145.497,610.254,142.166,612.336,141.073z"/>
				<path style="fill:#E38080;" d="M615.226,158.517l-8.824,2.999c0,0-1.184,1.055-2,2.186c1.143-0.084,2-0.352,2-0.352
					s0.101,1.39-0.055,2.987C612.901,165.613,615.226,158.517,615.226,158.517z"/>
				<path style="fill:#F9FBFF;" d="M616.188,152.42c0,0-4.997-0.729-10.072-1.093c-3.524-0.253-5.752,0.367-6.802,0.773
					c-0.555,1.995-2.433,6.268,0.361,9.926c2.115,2.77,6.727,1.324,6.727,1.324c5.674-0.989,10.462-6.09,10.462-6.09v-1.093
					c0,0-6.038,4.06-5.986,0.26C610.93,152.628,616.188,152.42,616.188,152.42z"/>
			</g>
			<path style="opacity:0.3;fill:#BAAD93;" d="M553.836,456.412c0,3.028,30.597,5.483,68.34,5.483c37.743,0,68.34-2.455,68.34-5.483
				c0-3.028-30.597-5.483-68.34-5.483C584.433,450.929,553.836,453.384,553.836,456.412z"/>
		</g>
	</g>
</g>
</svg>
